<svg id="Capa_1" data-name="Capa 1" xmlns="http://www.w3.org/2000/svg" viewBox="0 0 50.65 69.3"><defs><style>.cls-1,.cls-6{fill:#010101;}.cls-1{opacity:0.2;}.cls-2{fill:#fbfbfb;}.cls-3{fill:#c42e27;}.cls-4{fill:#fff;}.cls-5{fill:#f1c256;}.cls-6{opacity:0.3;}</style></defs><rect class="cls-1" width="48.97" height="69.3" rx="2.77"/><rect class="cls-2" x="0.46" y="0.46" width="48.05" height="68.38" rx="2.31"/><rect class="cls-3" x="4.62" y="4.62" width="39.73" height="60.06" rx="0.92"/><path class="cls-4" d="M9.43,64.68l-.62-.63,2.61-2.61L14,64.05l-.63.63H16l-.63-.63L18,61.44l2.62,2.61-.63.63H22.5l-.63-.63,2.62-2.61,2.61,2.61-.63.63H29l-.63-.63L31,61.44l2.61,2.61-.62.63h2.56l-.63-.63,2.61-2.61,2.62,2.61-.63.63H42.1l-.63-.63,2.62-2.61.26.26V59.87l-.26.26-2.62-2.61,2.62-2.62.26.27V53.33l-.26.27L41.47,51l2.62-2.61.26.27V46.8l-.26.26-2.62-2.61,2.62-2.61.26.26V40.26l-.26.27-2.62-2.61,2.62-2.62.26.27V33.73l-.26.27-2.62-2.62,2.62-2.61.26.26V27.2l-.26.26-2.62-2.61,2.62-2.61.26.26V20.66l-.26.27-2.62-2.61,2.62-2.62.26.27V14.13l-.26.27-2.62-2.62,2.62-2.61.26.26V7.6l-.26.26L41.47,5.25l.63-.63H39.54l.63.63L37.55,7.86,34.94,5.25l.63-.63H33l.62.63L31,7.86,28.41,5.25,29,4.62H26.47l.63.63L24.49,7.86,21.87,5.25l.63-.63H19.94l.63.63L18,7.86,15.34,5.25,16,4.62H13.4l.63.63L11.42,7.86,8.81,5.25l.62-.63H6.87l.63.63L4.88,7.86,4.62,7.6V9.43l.26-.26L7.5,11.78,4.89,14.4l-.27-.27V16l.27-.27L7.5,18.32,4.88,20.93l-.26-.27V22.5l.26-.26L7.5,24.85,4.89,27.46l-.27-.26V29l.27-.26L7.5,31.38,4.88,34l-.26-.27v1.84l.26-.27L7.5,37.92,4.89,40.53l-.27-.27V42.1l.27-.26L7.5,44.45,4.89,47.06l-.27-.26v1.84l.27-.27L7.5,51,4.88,53.6l-.26-.27v1.84l.26-.27L7.5,57.52,4.89,60.13l-.27-.26V61.7l.27-.26L7.5,64.05l-.63.63Zm-.62-7.16,2.61-2.62L14,57.52l-2.61,2.61Zm15-16.34L21.22,43.8l-2.61-2.62,2.61-2.61Zm-5.22-6.53L21.22,32l2.61,2.61-2.61,2.61Zm3.26,3.27,2.62-2.62,2.61,2.62-2.61,2.61Zm3.27-3.27L27.75,32l2.62,2.61-2.62,2.61Zm2.61,3.92,2.62,2.61L27.75,43.8l-2.61-2.62Zm.66-.65L31,35.3l2.61,2.62L31,40.53Zm0-6.54L31,28.77l2.61,2.61L31,34Zm-.66-.65-2.61-2.61,2.61-2.62,2.62,2.62Zm-.65.65L24.49,34l-2.62-2.62,2.62-2.61Zm-5.88-.65-2.61-2.61,2.61-2.62,2.61,2.62Zm-.65.65L18,34l-2.61-2.62L18,28.77Zm0,6.54L18,40.53l-2.61-2.61L18,35.3Zm0,6.53L18,47.06l-2.61-2.61L18,41.84Zm.65.65,2.61,2.62-2.61,2.61-2.61-2.61Zm.65-.65,2.62-2.61,2.61,2.61-2.61,2.61Zm5.88.65,2.62,2.62-2.62,2.61-2.61-2.61Zm.66-.65L31,41.84l2.61,2.61L31,47.06Zm5.88.65,2.61,2.62-2.61,2.61-2.62-2.61Zm-2.62-3.92,2.62-2.61,2.61,2.61L34.29,43.8Zm0-6.53L34.29,32l2.61,2.61-2.61,2.61Zm0-6.53,2.62-2.62,2.61,2.62-2.61,2.61Zm0-6.54L34.29,19l2.61,2.61L34.29,24.2Zm2,3.27L31,27.46l-2.61-2.61L31,22.24Zm-5.88-.65-2.61-2.62L27.75,19l2.62,2.61Zm-.65.65-2.61,2.61-2.62-2.61,2.62-2.61Zm-5.88-.65-2.61-2.62L21.22,19l2.61,2.61Zm-.65.65L18,27.46l-2.61-2.61L18,22.24Zm-5.88-.65-2.62-2.62L14.69,19l2.61,2.61Zm2.61,3.92-2.61,2.61-2.62-2.61,2.62-2.62Zm0,6.53-2.61,2.61-2.62-2.61L14.69,32Zm0,6.53L14.69,43.8l-2.62-2.62,2.62-2.61Zm0,6.54-2.61,2.61-2.62-2.61,2.62-2.62Zm0,6.53-2.61,2.62-2.62-2.62,2.62-2.61Zm-2-3.27L18,48.37,20.57,51,18,53.6Zm5.88.66,2.61,2.61-2.61,2.61-2.61-2.61Zm.65-.66,2.62-2.61L27.1,51,24.49,53.6Zm5.88.66,2.62,2.61-2.62,2.61-2.61-2.61Zm.66-.66L31,48.37,33.63,51,31,53.6Zm5.88.66,2.61,2.61-2.61,2.61-2.62-2.61Zm.65-.66,2.61-2.61L40.17,51,37.55,53.6Zm0-6.53,2.61-2.61,2.62,2.61-2.62,2.61Zm0-6.53,2.61-2.62,2.62,2.62-2.62,2.61Zm0-6.54,2.61-2.61,2.62,2.61L37.55,34Zm0-6.53,2.61-2.61,2.62,2.61-2.62,2.61Zm0-6.53,2.61-2.62,2.62,2.62-2.62,2.61Zm-.65-.66-2.62-2.61,2.62-2.62,2.61,2.62Zm-.66.66L31,20.93l-2.61-2.61L31,15.7Zm-5.88-.66-2.61-2.61,2.61-2.62,2.62,2.62Zm-.65.66-2.61,2.61-2.62-2.61,2.62-2.62Zm-5.88-.66-2.61-2.61,2.61-2.62,2.61,2.62Zm-.65.66L18,20.93l-2.61-2.61L18,15.7Zm-5.88-.66-2.62-2.61,2.62-2.62,2.61,2.62Zm-.66.66-2.61,2.61L8.81,18.32l2.61-2.62Zm0,6.53-2.61,2.61L8.81,24.85l2.61-2.61Zm0,6.53L11.42,34,8.81,31.38l2.61-2.61Zm0,6.54-2.61,2.61L8.81,37.92l2.61-2.62Zm0,6.53-2.61,2.61L8.81,44.45l2.61-2.61ZM14,51,11.42,53.6,8.81,51l2.61-2.61Zm.66,12.42-2.62-2.61,2.62-2.62,2.61,2.62Zm.65-5.88L18,54.9l2.62,2.62L18,60.13Zm5.88,5.88-2.61-2.61,2.61-2.62,2.61,2.61Zm.65-5.88,2.62-2.62,2.61,2.62-2.61,2.61Zm5.88,5.88-2.61-2.62,2.61-2.61,2.62,2.61Zm.66-5.88L31,54.9l2.61,2.62L31,60.13Zm5.88,5.88-2.62-2.62,2.62-2.61,2.61,2.61Zm.65-5.88,2.61-2.62,2.62,2.62-2.62,2.61Zm8.49,3.26L40.82,63.4l-2.61-2.62,2.61-2.61Zm0-6.53-2.61,2.61-2.61-2.61,2.61-2.61Zm0-6.53-2.61,2.61-2.61-2.61,2.61-2.62Zm0-6.54L40.82,43.8l-2.61-2.62,2.61-2.61Zm0-6.53-2.61,2.61-2.61-2.61L40.82,32Zm0-6.53-2.61,2.61-2.61-2.61,2.61-2.62Zm0-6.54L40.82,24.2l-2.61-2.62L40.82,19Zm0-6.53-2.61,2.61-2.61-2.61,2.61-2.62ZM40.82,5.9l2.61,2.62-2.61,2.61L38.21,8.51Zm-.65,5.88L37.55,14.4l-2.61-2.62,2.61-2.61ZM34.29,5.9,36.9,8.51l-2.61,2.62L31.67,8.51Zm-.66,5.88L31,14.4l-2.61-2.62L31,9.17ZM27.75,5.9l2.62,2.61-2.62,2.62L25.14,8.51Zm-.65,5.88L24.49,14.4l-2.62-2.62,2.62-2.61ZM21.22,5.9l2.61,2.61-2.61,2.62L18.61,8.51Zm-.65,5.88L18,14.4l-2.61-2.62L18,9.17ZM14.69,5.9,17.3,8.51l-2.61,2.62L12.07,8.51ZM14,11.78,11.42,14.4,8.81,11.78l2.61-2.61ZM5.54,8.52,8.15,5.9l2.62,2.61L8.15,11.13Zm0,6.53,2.61-2.62,2.62,2.62L8.15,17.66Zm0,6.53L8.15,19l2.62,2.61L8.15,24.2Zm0,6.54L8.15,25.5l2.62,2.62L8.15,30.73Zm0,6.53L8.15,32l2.62,2.61L8.15,37.26Zm0,6.53,2.61-2.61,2.62,2.61L8.15,43.8Zm0,6.54L8.15,45.1l2.62,2.62L8.15,50.33Zm0,6.53,2.61-2.61,2.62,2.61L8.15,56.86Zm0,6.53,2.61-2.61,2.62,2.62L8.15,63.4Z"/><path class="cls-5" d="M8.32,64.05l3.1-3.1,3.1,3.1-.63.63h.33l.47-.47.46.47h.33l-.63-.63L18,61l3.11,3.1-.63.63h.32l.47-.47.47.47H22l-.63-.63L24.49,61l3.1,3.1-.63.63h.33l.46-.47.47.47h.32l-.62-.63L31,61l3.1,3.1-.62.63h.32l.47-.47.46.47h.33l-.63-.63,3.1-3.1,3.11,3.1-.63.63h.33l.46-.47.47.47h.32L41,64.05,44.09,61l.26.26v-.32l-.1-.11.1-.1v-.32l-.26.26L41,57.52l3.11-3.11.26.27v-.33l-.1-.1.1-.1v-.33l-.26.27L41,51l3.11-3.1.26.27v-.33l-.1-.1.1-.1v-.33l-.26.26L41,44.45l3.11-3.1.26.26v-.32l-.1-.11.1-.1v-.33l-.26.27L41,37.92l3.11-3.11.26.27v-.33l-.1-.1.1-.1v-.33l-.26.27L41,31.38l3.11-3.1.26.26v-.32l-.1-.1.1-.11v-.32l-.26.26L41,24.85l3.11-3.1.26.26v-.33l-.1-.1.1-.1v-.33l-.26.27L41,18.32l3.11-3.11.26.27v-.33l-.1-.1.1-.1v-.33l-.26.27L41,11.78l3.11-3.1.26.26V8.62l-.1-.1.1-.11V8.09l-.26.26L41,5.25l.63-.63h-.32l-.47.47-.46-.47H40l.63.63-3.11,3.1-3.1-3.1.63-.63h-.33l-.46.47-.47-.47H33.5l.62.63L31,8.35l-3.1-3.1.62-.63h-.32l-.47.47-.46-.47H27l.63.63-3.1,3.1-3.11-3.1L22,4.62h-.32l-.47.47-.47-.47h-.32l.63.63L18,8.35l-3.1-3.1.63-.63h-.33l-.46.47-.47-.47h-.33l.63.63-3.1,3.1-3.1-3.1.62-.63H8.62l-.47.47-.46-.47H7.36L8,5.25,4.88,8.35l-.26-.26v.32l.1.11-.1.1v.32l.26-.26L8,11.78l-3.1,3.11-.27-.27V15l.1.1-.1.1v.33l.27-.27L8,18.32l-3.11,3.1-.26-.27v.33l.1.1-.1.1V22l.26-.26L8,24.85,4.89,28l-.27-.26V28l.1.11-.1.1v.32l.27-.26L8,31.38,4.88,34.49l-.26-.27v.33l.1.1-.1.1v.33l.26-.27L8,37.92,4.89,41l-.27-.27v.33l.1.1-.1.11v.32l.27-.26L8,44.45l-3.1,3.1-.27-.26v.33l.1.1-.1.1v.33l.27-.27L8,51,4.88,54.09l-.26-.27v.33l.1.1-.1.1v.33l.26-.27L8,57.52l-3.1,3.1-.27-.26v.32l.1.1-.1.11v.32L4.89,61,8,64.05l-.63.63h.33l.46-.47.47.47h.32Zm0-6.53,3.1-3.11,3.1,3.11-3.1,3.1Zm16-16.34-3.1,3.11-3.1-3.11,3.1-3.1Zm-6.2-6.53,3.1-3.1,3.1,3.1-3.1,3.1Zm3.26,3.27,3.11-3.11,3.1,3.11L24.49,41Zm3.27-3.27,3.1-3.1,3.11,3.1-3.11,3.1Zm3.1,3.43,3.11,3.1-3.11,3.11-3.1-3.11Zm.17-.16L31,34.81l3.1,3.11L31,41Zm0-6.54,3.1-3.1,3.1,3.1L31,34.49Zm-.17-.16-3.1-3.1L27.75,25l3.11,3.11Zm-.16.16-3.1,3.11-3.11-3.11,3.11-3.1Zm-6.37-.16-3.1-3.1L21.22,25l3.1,3.11Zm-.16.16L18,34.49l-3.1-3.11,3.1-3.1Zm0,6.54L18,41l-3.1-3.1L18,34.81Zm0,6.53L18,47.55l-3.1-3.1,3.1-3.1Zm.16.16,3.1,3.11-3.1,3.1-3.1-3.1Zm.16-.16,3.11-3.1,3.1,3.1-3.1,3.1Zm6.37.16,3.11,3.11-3.11,3.1-3.1-3.1Zm.17-.16,3.1-3.1,3.1,3.1L31,47.55Zm6.37.16,3.1,3.11-3.1,3.1-3.11-3.1Zm-3.11-3.43,3.11-3.1,3.1,3.1-3.1,3.11Zm0-6.53,3.11-3.1,3.1,3.1-3.1,3.1Zm0-6.53L34.29,25l3.1,3.11-3.1,3.1Zm0-6.54,3.11-3.1,3.1,3.1-3.1,3.11Zm2.94,3.27L31,28l-3.1-3.1,3.1-3.1Zm-6.37-.16-3.1-3.11,3.1-3.1,3.11,3.1Zm-.16.16L24.49,28l-3.11-3.1,3.11-3.1Zm-6.37-.16-3.1-3.11,3.1-3.1,3.1,3.1Zm-.16.16L18,28l-3.1-3.1,3.1-3.1Zm-6.37-.16-3.11-3.11,3.11-3.1,3.1,3.1Zm3.1,3.43-3.1,3.1-3.11-3.1L14.69,25Zm0,6.53-3.1,3.1-3.11-3.1,3.11-3.1Zm0,6.53-3.1,3.11-3.11-3.11,3.11-3.1Zm0,6.54-3.1,3.1-3.11-3.1,3.11-3.11Zm0,6.53-3.1,3.11-3.11-3.11,3.11-3.1ZM14.85,51l3.1-3.1L21.06,51,18,54.09Zm6.37.17,3.1,3.1-3.1,3.1-3.1-3.1Zm.16-.17,3.11-3.1,3.1,3.1-3.1,3.11Zm6.37.17,3.11,3.1-3.11,3.1-3.1-3.1Zm.17-.17,3.1-3.1,3.1,3.1L31,54.09Zm6.37.17,3.1,3.1-3.1,3.1-3.11-3.1Zm.16-.17,3.1-3.1L40.66,51l-3.11,3.11Zm0-6.53,3.1-3.1,3.11,3.1-3.11,3.1Zm0-6.53,3.1-3.11,3.11,3.11L37.55,41Zm0-6.54,3.1-3.1,3.11,3.1-3.11,3.11Zm0-6.53,3.1-3.1,3.11,3.1L37.55,28Zm0-6.53,3.1-3.11,3.11,3.11-3.11,3.1Zm-.16-.17-3.11-3.1L34.29,12l3.1,3.1Zm-.17.17L31,21.42l-3.1-3.1L31,15.21Zm-6.37-.17-3.1-3.1,3.1-3.1,3.11,3.1Zm-.16.17-3.1,3.1-3.11-3.1,3.11-3.11Zm-6.37-.17-3.1-3.1,3.1-3.1,3.1,3.1Zm-.16.17L18,21.42l-3.1-3.1L18,15.21Zm-6.37-.17-3.11-3.1L14.69,12l3.1,3.1Zm-.17.17-3.1,3.1-3.1-3.1,3.1-3.11Zm0,6.53L11.42,28l-3.1-3.1,3.1-3.1Zm0,6.53-3.1,3.11-3.1-3.11,3.1-3.1Zm0,6.54L11.42,41l-3.1-3.1,3.1-3.11Zm0,6.53-3.1,3.1-3.1-3.1,3.1-3.1Zm0,6.53-3.1,3.11L8.32,51l3.1-3.1Zm.17,12.91-3.11-3.1,3.11-3.11,3.1,3.11Zm.16-6.37L18,54.41l3.11,3.11L18,60.62Zm6.37,6.37-3.1-3.1,3.1-3.11,3.1,3.1Zm.16-6.37,3.11-3.11,3.1,3.11-3.1,3.1Zm6.37,6.37-3.1-3.11,3.1-3.1,3.11,3.1Zm.17-6.37L31,54.41l3.1,3.11L31,60.62Zm6.37,6.37-3.11-3.11,3.11-3.1,3.1,3.1Zm.16-6.37,3.1-3.11,3.11,3.11-3.11,3.1Zm9.47,3.26-3.1,3.11-3.1-3.11,3.1-3.1Zm0-6.53-3.1,3.1-3.1-3.1,3.1-3.1Zm0-6.53-3.1,3.1-3.1-3.1,3.1-3.11Zm0-6.54-3.1,3.11-3.1-3.11,3.1-3.1Zm0-6.53-3.1,3.1-3.1-3.1,3.1-3.1Zm0-6.53-3.1,3.1-3.1-3.1L40.82,25Zm0-6.54-3.1,3.11-3.1-3.11,3.1-3.1Zm0-6.53-3.1,3.1-3.1-3.1,3.1-3.1Zm-3.1-9.64,3.1,3.11-3.1,3.1-3.1-3.11Zm-.16,6.37-3.11,3.11-3.1-3.11,3.1-3.1ZM34.29,5.41l3.1,3.1-3.1,3.11L31.18,8.51Zm-.17,6.37L31,14.89l-3.1-3.11L31,8.68ZM27.75,5.41l3.11,3.1-3.11,3.11-3.1-3.11Zm-.16,6.37-3.1,3.11-3.11-3.11,3.11-3.1ZM21.22,5.41l3.1,3.1-3.1,3.11-3.1-3.11Zm-.16,6.37L18,14.89l-3.1-3.11L18,8.68ZM14.69,5.41l3.1,3.1-3.1,3.11L11.58,8.51Zm-.17,6.37-3.1,3.11-3.1-3.11,3.1-3.1ZM5.05,8.52l3.1-3.11,3.11,3.1L8.15,11.62Zm0,6.53L8.15,12l3.1,3.1-3.1,3.1Zm0,6.53,3.1-3.1,3.11,3.1L8.15,24.69Zm0,6.54L8.15,25l3.11,3.11-3.11,3.1Zm0,6.53,3.1-3.1,3.11,3.1-3.11,3.1Zm0,6.53,3.1-3.1,3.11,3.1L8.15,44.29Zm0,6.54,3.1-3.11,3.11,3.11-3.11,3.1Zm0,6.53,3.1-3.1,3.1,3.1-3.1,3.1Zm0,6.53,3.1-3.1,3.11,3.11-3.11,3.1Z"/><path class="cls-6" d="M42.51,2.77V66.53a2.32,2.32,0,0,1-2.31,2.31H1.71A2.77,2.77,0,0,1,.47,66.53V2.77A2.77,2.77,0,0,1,1.71.46H40.2A2.32,2.32,0,0,1,42.51,2.77Z"/><rect class="cls-2" x="0.93" y="0.46" width="48.05" height="68.38" rx="2.31"/><rect class="cls-3" x="5.09" y="4.62" width="39.73" height="60.06" rx="0.92"/><path class="cls-4" d="M9.9,64.68l-.63-.63,2.61-2.61,2.62,2.61-.63.63h2.56l-.63-.63,2.62-2.61L21,64.05l-.63.63H23l-.63-.63L25,61.44l2.61,2.61-.62.63H29.5l-.63-.63,2.61-2.61,2.62,2.61-.63.63H36l-.63-.63L38,61.44l2.61,2.61-.63.63h2.57l-.63-.63,2.61-2.61.27.26V59.87l-.27.26-2.61-2.61,2.61-2.62.27.27V53.33l-.27.27L41.94,51l2.61-2.61.27.27V46.8l-.27.26-2.61-2.61,2.61-2.61.27.26V40.26l-.27.27-2.61-2.61,2.61-2.62.27.27V33.73l-.27.27-2.61-2.62,2.61-2.61.27.26V27.2l-.27.26-2.61-2.61,2.61-2.61.27.26V20.66l-.27.27-2.61-2.61,2.61-2.62.27.27V14.13l-.27.27-2.61-2.62,2.61-2.61.27.26V7.6l-.27.26L41.94,5.25l.63-.63H40l.63.63L38,7.86,35.4,5.25,36,4.62H33.47l.63.63L31.48,7.86,28.87,5.25l.63-.63H26.94l.62.63L25,7.86,22.34,5.25,23,4.62H20.4l.63.63L18.42,7.86,15.8,5.25l.63-.63H13.87l.63.63L11.88,7.86,9.27,5.25l.63-.63H7.34L8,5.25,5.35,7.86,5.09,7.6V9.43l.26-.26L8,11.78,5.35,14.4l-.26-.27V16l.26-.27L8,18.32,5.35,20.93l-.26-.27V22.5l.26-.26L8,24.85,5.35,27.46l-.26-.26V29l.26-.26L8,31.38,5.35,34l-.26-.27v1.84l.26-.27L8,37.92,5.35,40.53l-.26-.27V42.1l.26-.26L8,44.45,5.35,47.06l-.26-.26v1.84l.26-.27L8,51,5.35,53.6l-.26-.27v1.84l.26-.27L8,57.52,5.35,60.13l-.26-.26V61.7l.26-.26L8,64.05l-.62.63Zm-.63-7.16,2.61-2.62,2.62,2.62-2.62,2.61Zm15-16.34L21.68,43.8l-2.61-2.62,2.61-2.61Zm-5.23-6.53L21.68,32l2.62,2.61-2.62,2.61Zm3.27,3.27L25,35.3l2.61,2.62L25,40.53Zm3.26-3.27L28.22,32l2.61,2.61-2.61,2.61Zm2.62,3.92,2.61,2.61L28.22,43.8,25.6,41.18Zm.65-.65,2.61-2.62,2.62,2.62-2.62,2.61Zm0-6.54,2.61-2.61,2.62,2.61L31.48,34Zm-.65-.65L25.6,28.12l2.62-2.62,2.61,2.62Zm-.66.65L25,34l-2.61-2.62L25,28.77Zm-5.88-.65-2.61-2.61,2.61-2.62,2.62,2.62Zm-.65.65L18.42,34,15.8,31.38l2.62-2.61Zm0,6.54-2.61,2.61L15.8,37.92l2.62-2.62Zm0,6.53-2.61,2.61L15.8,44.45l2.62-2.61Zm.65.65,2.62,2.62-2.62,2.61-2.61-2.61Zm.66-.65L25,41.84l2.61,2.61L25,47.06Zm5.88.65,2.61,2.62-2.61,2.61L25.6,47.72Zm.65-.65,2.61-2.61,2.62,2.61-2.62,2.61Zm5.88.65,2.61,2.62-2.61,2.61-2.61-2.61Zm-2.61-3.92,2.61-2.61,2.61,2.61L34.75,43.8Zm0-6.53L34.75,32l2.62,2.61-2.62,2.61Zm0-6.53,2.61-2.62,2.61,2.62-2.61,2.61Zm0-6.54L34.75,19l2.61,2.61L34.75,24.2Zm2,3.27-2.62,2.61-2.61-2.61,2.61-2.61Zm-5.88-.65L25.6,21.58,28.22,19l2.61,2.61Zm-.66.65L25,27.46l-2.61-2.61L25,22.24Zm-5.88-.65-2.61-2.62L21.68,19l2.62,2.61Zm-.65.65-2.61,2.61L15.8,24.85l2.62-2.61Zm-5.88-.65-2.61-2.62L15.15,19l2.61,2.61Zm2.61,3.92-2.61,2.61-2.61-2.61,2.61-2.62Zm0,6.53-2.61,2.61-2.61-2.61L15.15,32Zm0,6.53L15.15,43.8l-2.61-2.62,2.61-2.61Zm0,6.54-2.61,2.61-2.61-2.61,2.61-2.62Zm0,6.53-2.61,2.62-2.61-2.62,2.61-2.61ZM15.8,51l2.62-2.61L21,51,18.42,53.6Zm5.88.66,2.62,2.61-2.62,2.61-2.61-2.61Zm.66-.66L25,48.37,27.56,51,25,53.6Zm5.88.66,2.61,2.61-2.61,2.61L25.6,54.25Zm.65-.66,2.61-2.61L34.1,51,31.48,53.6Zm5.88.66,2.61,2.61-2.61,2.61-2.61-2.61ZM35.4,51,38,48.37,40.63,51,38,53.6Zm0-6.53L38,41.84l2.61,2.61L38,47.06Zm0-6.53L38,35.3l2.61,2.62L38,40.53Zm0-6.54L38,28.77l2.61,2.61L38,34Zm0-6.53L38,22.24l2.61,2.61L38,27.46Zm0-6.53L38,15.7l2.61,2.62L38,20.93Zm-.65-.66-2.61-2.61,2.61-2.62,2.61,2.62Zm-.65.66-2.62,2.61-2.61-2.61,2.61-2.62Zm-5.88-.66L25.6,15.05l2.62-2.62,2.61,2.62Zm-.66.66L25,20.93l-2.61-2.61L25,15.7Zm-5.88-.66-2.61-2.61,2.61-2.62,2.62,2.62Zm-.65.66-2.61,2.61L15.8,18.32l2.62-2.62Zm-5.88-.66-2.61-2.61,2.61-2.62,2.61,2.62Zm-.65.66-2.62,2.61L9.27,18.32l2.61-2.62Zm0,6.53-2.62,2.61L9.27,24.85l2.61-2.61Zm0,6.53L11.88,34,9.27,31.38l2.61-2.61Zm0,6.54-2.62,2.61L9.27,37.92l2.61-2.62Zm0,6.53-2.62,2.61L9.27,44.45l2.61-2.61Zm0,6.53L11.88,53.6,9.27,51l2.61-2.61Zm.65,12.42-2.61-2.61,2.61-2.62,2.61,2.62Zm.65-5.88,2.62-2.62L21,57.52l-2.61,2.61Zm5.88,5.88-2.61-2.61,2.61-2.62,2.62,2.61Zm.66-5.88L25,54.9l2.61,2.62L25,60.13Zm5.88,5.88L25.6,60.78l2.62-2.61,2.61,2.61Zm.65-5.88,2.61-2.62,2.62,2.62-2.62,2.61Zm5.88,5.88-2.61-2.62,2.61-2.61,2.62,2.61Zm.65-5.88L38,54.9l2.61,2.62L38,60.13Zm8.5,3.26L41.29,63.4l-2.62-2.62,2.62-2.61Zm0-6.53-2.61,2.61-2.62-2.61,2.62-2.61Zm0-6.53-2.61,2.61-2.62-2.61,2.61-2.62Zm0-6.54L41.28,43.8l-2.61-2.62,2.62-2.61Zm0-6.53-2.61,2.61-2.62-2.61L41.29,32Zm0-6.53-2.61,2.61-2.62-2.61,2.62-2.62Zm0-6.54L41.29,24.2l-2.62-2.62L41.29,19Zm0-6.53-2.61,2.61-2.62-2.61,2.62-2.62ZM41.29,5.9,43.9,8.52l-2.61,2.61L38.67,8.51Zm-.66,5.88L38,14.4,35.4,11.78,38,9.17ZM34.75,5.9l2.61,2.61-2.61,2.62L32.14,8.51Zm-.65,5.88L31.48,14.4l-2.61-2.62,2.61-2.61ZM28.22,5.9l2.61,2.61-2.61,2.62L25.6,8.51Zm-.66,5.88L25,14.4l-2.61-2.62L25,9.17ZM21.68,5.9,24.3,8.51l-2.62,2.62L19.07,8.51ZM21,11.78,18.42,14.4,15.8,11.78l2.62-2.61ZM15.15,5.9l2.61,2.61-2.61,2.62L12.54,8.51Zm-.65,5.88L11.88,14.4,9.27,11.78l2.61-2.61ZM6,8.52,8.62,5.9l2.61,2.61L8.62,11.13Zm0,6.53,2.62-2.62,2.61,2.62L8.62,17.66Zm0,6.53L8.62,19l2.61,2.61L8.62,24.2Zm0,6.54L8.62,25.5l2.61,2.62L8.62,30.73Zm0,6.53L8.62,32l2.61,2.61L8.62,37.26Zm0,6.53,2.62-2.61,2.61,2.61L8.62,43.8Zm0,6.54L8.62,45.1l2.61,2.62L8.62,50.33Zm0,6.53,2.62-2.61,2.61,2.61L8.62,56.86Zm0,6.53,2.62-2.61,2.61,2.62L8.62,63.4Z"/><path class="cls-5" d="M8.78,64.05l3.1-3.1L15,64.05l-.63.63h.32l.47-.47.47.47h.32l-.63-.63L18.42,61l3.1,3.1-.63.63h.33l.46-.47.47.47h.33l-.63-.63L25,61l3.1,3.1-.62.63h.32l.47-.47.46.47H29l-.63-.63,3.1-3.1,3.11,3.1-.63.63h.33l.46-.47.47.47h.32l-.62-.63L38,61l3.1,3.1-.63.63h.33l.47-.47.46.47h.33l-.63-.63,3.1-3.1.27.26v-.32l-.1-.11.1-.1v-.32l-.27.26-3.1-3.1,3.1-3.11.27.27v-.33l-.1-.1.1-.1v-.33l-.27.27L41.45,51l3.1-3.1.27.27v-.33l-.11-.1.11-.1v-.33l-.27.26-3.1-3.1,3.1-3.1.27.26v-.32l-.11-.11.11-.1v-.33l-.27.27-3.1-3.1,3.1-3.11.27.27v-.33l-.1-.1.1-.1v-.33l-.27.27-3.1-3.11,3.1-3.1.27.26v-.32l-.1-.1.1-.11v-.32l-.27.26-3.1-3.1,3.1-3.1.27.26v-.33l-.11-.1.11-.1v-.33l-.27.27-3.1-3.1,3.1-3.11.27.27v-.33l-.11-.1.11-.1v-.33l-.27.27-3.1-3.11,3.1-3.1.27.26V8.62l-.1-.1.1-.11V8.09l-.27.26-3.1-3.1.63-.63h-.33l-.46.47-.47-.47h-.33l.63.63L38,8.35l-3.1-3.1.62-.63h-.32l-.47.47-.46-.47H34l.63.63-3.11,3.1-3.1-3.1L29,4.62h-.33l-.46.47-.47-.47h-.32l.62.63L25,8.35l-3.1-3.1.63-.63h-.33l-.47.47-.46-.47h-.33l.63.63-3.1,3.1-3.11-3.1.63-.63h-.32l-.47.47-.47-.47h-.32l.63.63-3.11,3.1-3.1-3.1.63-.63H9.08l-.46.47-.47-.47H7.83l.62.63-3.1,3.1-.26-.26v.32l.1.11-.1.1v.32l.26-.26,3.1,3.1-3.1,3.11-.26-.27V15l.1.1-.1.1v.33l.26-.27,3.1,3.11-3.1,3.1-.26-.27v.33l.1.1-.1.1V22l.26-.26,3.1,3.1L5.35,28l-.26-.26V28l.1.11-.1.1v.32l.26-.26,3.1,3.1-3.1,3.11-.26-.27v.33l.1.1-.1.1v.33l.26-.27,3.1,3.11L5.35,41l-.26-.27v.33l.1.1-.1.11v.32l.26-.26,3.1,3.1-3.1,3.1-.26-.26v.33l.1.1-.1.1v.33l.26-.27L8.45,51l-3.1,3.11-.26-.27v.33l.1.1-.1.1v.33l.26-.27,3.1,3.11-3.1,3.1-.26-.26v.32l.1.1-.1.11v.32L5.35,61l3.1,3.1-.62.63h.32l.47-.47.46.47h.33Zm0-6.53,3.1-3.11L15,57.52l-3.11,3.1Zm16-16.34-3.11,3.11-3.1-3.11,3.1-3.1Zm-6.21-6.53,3.1-3.1,3.11,3.1-3.11,3.1Zm3.27,3.27L25,34.81l3.1,3.11L25,41Zm3.26-3.27,3.11-3.1,3.1,3.1-3.1,3.1Zm3.11,3.43,3.1,3.1-3.1,3.11-3.11-3.11Zm.16-.16,3.1-3.11,3.11,3.11L31.48,41Zm0-6.54,3.1-3.1,3.11,3.1-3.11,3.11Zm-.16-.16-3.11-3.1L28.22,25l3.1,3.11Zm-.17.16L25,34.49l-3.1-3.11,3.1-3.1Zm-6.37-.16-3.1-3.1L21.68,25l3.11,3.11Zm-.16.16-3.1,3.11-3.11-3.11,3.11-3.1Zm0,6.54L18.42,41l-3.11-3.1,3.11-3.11Zm0,6.53-3.1,3.1-3.11-3.1,3.11-3.1Zm.16.16,3.11,3.11-3.11,3.1-3.1-3.1Zm.17-.16,3.1-3.1,3.1,3.1L25,47.55Zm6.37.16,3.1,3.11-3.1,3.1-3.11-3.1Zm.16-.16,3.1-3.1,3.11,3.1-3.11,3.1Zm6.37.16,3.1,3.11-3.1,3.1-3.1-3.1Zm-3.1-3.43,3.1-3.1,3.1,3.1-3.1,3.11Zm0-6.53,3.1-3.1,3.11,3.1-3.11,3.1Zm0-6.53L34.75,25l3.1,3.11-3.1,3.1Zm0-6.54,3.1-3.1,3.1,3.1-3.1,3.11Zm2.94,3.27L31.48,28l-3.1-3.1,3.1-3.1Zm-6.37-.16-3.11-3.11,3.11-3.1,3.1,3.1Zm-.17.16L25,28l-3.1-3.1,3.1-3.1Zm-6.37-.16-3.1-3.11,3.1-3.1,3.11,3.1Zm-.16.16L18.42,28l-3.11-3.1,3.11-3.1Zm-6.37-.16-3.1-3.11,3.1-3.1,3.1,3.1Zm3.1,3.43-3.1,3.1-3.1-3.1L15.15,25Zm0,6.53-3.1,3.1-3.1-3.1,3.1-3.1Zm0,6.53-3.1,3.11-3.1-3.11,3.1-3.1Zm0,6.54-3.1,3.1-3.1-3.1,3.1-3.11Zm0,6.53-3.1,3.11-3.1-3.11,3.1-3.1ZM15.31,51l3.11-3.1,3.1,3.1-3.1,3.11Zm6.37.17,3.11,3.1-3.11,3.1-3.1-3.1Zm.17-.17,3.1-3.1,3.1,3.1L25,54.09Zm6.37.17,3.1,3.1-3.1,3.1-3.11-3.1Zm.16-.17,3.1-3.1L34.59,51l-3.11,3.11Zm6.37.17,3.1,3.1-3.1,3.1-3.1-3.1Zm.17-.17,3.1-3.1,3.1,3.1L38,54.09Zm0-6.53,3.1-3.1,3.1,3.1L38,47.55Zm0-6.53L38,34.81l3.1,3.11L38,41Zm0-6.54,3.1-3.1,3.1,3.1L38,34.49Zm0-6.53,3.1-3.1,3.1,3.1L38,28Zm0-6.53L38,15.21l3.1,3.11L38,21.42Zm-.17-.17-3.1-3.1,3.1-3.1,3.1,3.1Zm-.16.17-3.11,3.1-3.1-3.1,3.1-3.11Zm-6.37-.17-3.11-3.1L28.22,12l3.1,3.1Zm-.17.17L25,21.42l-3.1-3.1L25,15.21Zm-6.37-.17-3.1-3.1,3.1-3.1,3.11,3.1Zm-.16.17-3.1,3.1-3.11-3.1,3.11-3.11Zm-6.37-.17-3.1-3.1,3.1-3.1,3.1,3.1Zm-.16.17-3.11,3.1-3.1-3.1,3.1-3.11Zm0,6.53L11.88,28l-3.1-3.1,3.1-3.1Zm0,6.53-3.11,3.11-3.1-3.11,3.1-3.1Zm0,6.54L11.88,41l-3.1-3.1,3.1-3.11Zm0,6.53-3.11,3.1-3.1-3.1,3.1-3.1ZM15,51l-3.11,3.11L8.78,51l3.1-3.1Zm.16,12.91-3.1-3.1,3.1-3.11,3.1,3.11Zm.16-6.37,3.11-3.11,3.1,3.11-3.1,3.1Zm6.37,6.37-3.1-3.1,3.1-3.11,3.11,3.1Zm.17-6.37L25,54.41l3.1,3.11L25,60.62Zm6.37,6.37-3.11-3.11,3.11-3.1,3.1,3.1Zm.16-6.37,3.1-3.11,3.11,3.11-3.11,3.1Zm6.37,6.37-3.1-3.11,3.1-3.1,3.11,3.1Zm.17-6.37L38,54.41l3.1,3.11L38,60.62Zm9.47,3.26-3.1,3.11-3.11-3.11,3.11-3.1Zm0-6.53-3.1,3.1-3.11-3.1,3.11-3.1Zm0-6.53-3.1,3.1-3.11-3.1,3.1-3.11Zm0-6.54-3.11,3.11-3.1-3.11,3.11-3.1Zm0-6.53-3.1,3.1-3.11-3.1,3.11-3.1Zm0-6.53-3.1,3.1-3.11-3.1L41.29,25Zm0-6.54-3.1,3.11-3.11-3.11,3.11-3.1Zm0-6.53-3.1,3.1-3.11-3.1L41.29,12Zm-3.1-9.64,3.1,3.11-3.1,3.1L38.18,8.51Zm-.17,6.37L38,14.89l-3.1-3.11L38,8.68ZM34.75,5.41l3.1,3.1-3.1,3.11-3.1-3.11Zm-.16,6.37-3.11,3.11-3.1-3.11,3.1-3.1ZM28.22,5.41l3.1,3.1-3.1,3.11L25.11,8.51Zm-.17,6.37L25,14.89l-3.1-3.11L25,8.68ZM21.68,5.41l3.11,3.1-3.11,3.11-3.1-3.11Zm-.16,6.37-3.1,3.11-3.11-3.11,3.11-3.1ZM15.15,5.41l3.1,3.1-3.1,3.11-3.1-3.11ZM15,11.78l-3.11,3.11-3.1-3.11,3.1-3.1ZM5.51,8.52,8.62,5.41l3.1,3.1-3.1,3.11Zm0,6.53L8.62,12l3.1,3.1-3.1,3.1Zm0,6.53,3.11-3.1,3.1,3.1-3.1,3.11Zm0,6.54L8.62,25l3.1,3.11-3.1,3.1Zm0,6.53,3.11-3.1,3.1,3.1-3.1,3.1Zm0,6.53,3.11-3.1,3.1,3.1-3.1,3.11Zm0,6.54,3.11-3.11,3.1,3.11-3.1,3.1Zm0,6.53,3.11-3.1,3.1,3.1-3.1,3.1Zm0,6.53,3.11-3.1,3.1,3.11-3.1,3.1Z"/><path class="cls-6" d="M43,2.85V66.61a2.32,2.32,0,0,1-2.31,2.31H2.23A2.75,2.75,0,0,1,1,66.61V2.85A2.74,2.74,0,0,1,2.23.55H40.72A2.31,2.31,0,0,1,43,2.85Z"/><rect class="cls-2" x="1.45" y="0.55" width="48.05" height="68.37" rx="2.31"/><rect class="cls-3" x="5.61" y="4.7" width="39.73" height="60.06" rx="0.92"/><path class="cls-4" d="M10.42,64.76l-.63-.63,2.61-2.61L15,64.13l-.63.63H17l-.62-.63,2.61-2.61,2.61,2.61-.63.63h2.57l-.63-.63,2.61-2.61,2.62,2.61-.63.63H30l-.63-.63L32,61.52l2.61,2.61-.63.63h2.57l-.63-.63,2.61-2.61,2.61,2.61-.63.63h2.57l-.63-.63,2.61-2.61.27.27V60l-.27.26L42.46,57.6,45.07,55l.27.26V53.42l-.27.26-2.61-2.61,2.61-2.62.27.27V46.88l-.27.27-2.61-2.62,2.61-2.61.27.26V40.35l-.27.26L42.46,38l2.61-2.61.27.26V33.81l-.27.27-2.61-2.61,2.61-2.62.27.27V27.28l-.27.27-2.61-2.62,2.61-2.61.27.26V20.75l-.27.26L42.46,18.4l2.61-2.62.27.27V14.21l-.27.27-2.61-2.61,2.61-2.62.27.27V7.68l-.27.26L42.46,5.33l.63-.63H40.53l.62.63L38.54,7.94,35.93,5.33l.63-.63H34l.63.63L32,7.94,29.39,5.33,30,4.7H27.46l.63.63L25.47,7.94,22.86,5.33l.63-.63H20.92l.63.63L18.94,7.94,16.33,5.33,17,4.7H14.39l.63.63L12.4,7.94,9.79,5.33l.63-.63H7.86l.62.63L5.87,7.94l-.26-.26V9.52l.26-.27,2.61,2.62L5.87,14.48l-.26-.27v1.84l.26-.27L8.48,18.4,5.87,21l-.26-.26v1.83l.26-.26,2.61,2.61L5.87,27.55l-.26-.27v1.84l.26-.27,2.61,2.62L5.87,34.08l-.26-.27v1.84l.26-.26L8.48,38,5.87,40.61l-.26-.26v1.83l.26-.26,2.61,2.61L5.87,47.15l-.26-.27v1.84l.26-.27,2.61,2.62L5.87,53.68l-.26-.26v1.83L5.87,55,8.48,57.6,5.87,60.21,5.61,60v1.84l.26-.27,2.62,2.61-.63.63ZM9.79,57.6,12.4,55,15,57.6,12.4,60.21Zm15-16.34-2.61,2.62-2.62-2.62,2.62-2.61Zm-5.23-6.53,2.62-2.61,2.61,2.61-2.61,2.62ZM22.86,38l2.61-2.61L28.09,38l-2.62,2.61Zm3.27-3.27,2.61-2.61,2.61,2.61-2.61,2.62Zm2.61,3.92,2.61,2.61-2.61,2.62-2.61-2.62Zm.65-.65L32,35.39,34.62,38,32,40.61Zm0-6.53L32,28.85l2.61,2.62L32,34.08Zm-.65-.66L26.13,28.2l2.61-2.61,2.61,2.61Zm-.65.66-2.62,2.61-2.61-2.61,2.61-2.62Zm-5.88-.66L19.59,28.2l2.62-2.61,2.61,2.61Zm-.66.66-2.61,2.61-2.61-2.61,2.61-2.62Zm0,6.53-2.61,2.61L16.33,38l2.61-2.61Zm0,6.53-2.61,2.62-2.61-2.62,2.61-2.61Zm.66.66,2.61,2.61-2.61,2.61L19.59,47.8Zm.65-.66,2.61-2.61,2.62,2.61-2.62,2.62Zm5.88.66,2.61,2.61-2.61,2.61L26.13,47.8Zm.65-.66L32,41.92l2.61,2.61L32,47.15Zm5.88.66,2.62,2.61-2.62,2.61L32.66,47.8Zm-2.61-3.93,2.61-2.61,2.62,2.61-2.62,2.62Zm0-6.53,2.61-2.61,2.62,2.61-2.62,2.62Zm0-6.53,2.61-2.61,2.62,2.61-2.62,2.61Zm0-6.53,2.61-2.62,2.62,2.62-2.62,2.61Zm2,3.26L32,27.55l-2.62-2.62L32,22.32Zm-5.88-.65-2.61-2.61,2.61-2.62,2.61,2.62Zm-.65.65-2.62,2.62-2.61-2.62,2.61-2.61Zm-5.88-.65-2.62-2.61,2.62-2.62,2.61,2.62Zm-.66.65-2.61,2.62-2.61-2.62,2.61-2.61Zm-5.88-.65-2.61-2.61,2.61-2.62,2.62,2.62Zm2.62,3.92-2.62,2.61L13.06,28.2l2.61-2.61Zm0,6.53-2.62,2.62-2.61-2.62,2.61-2.61Zm0,6.53-2.62,2.62-2.61-2.62,2.61-2.61Zm0,6.54-2.62,2.61L13.06,47.8l2.61-2.61Zm0,6.53L15.67,57l-2.61-2.62,2.61-2.61Zm-2-3.26,2.61-2.62,2.61,2.62-2.61,2.61Zm5.88.65,2.61,2.61L22.21,57l-2.62-2.62Zm.65-.65,2.61-2.62,2.62,2.62-2.62,2.61Zm5.88.65,2.61,2.61L28.74,57l-2.61-2.62Zm.65-.65L32,48.45l2.61,2.62L32,53.68Zm5.88.65,2.62,2.61L35.27,57l-2.61-2.62Zm.66-.65,2.61-2.62,2.61,2.62-2.61,2.61Zm0-6.54,2.61-2.61,2.61,2.61-2.61,2.62Zm0-6.53,2.61-2.61L41.15,38l-2.61,2.61Zm0-6.53,2.61-2.62,2.61,2.62-2.61,2.61Zm0-6.54,2.61-2.61,2.61,2.61-2.61,2.62Zm0-6.53,2.61-2.62,2.61,2.62L38.54,21Zm-.66-.66-2.61-2.61,2.61-2.61,2.62,2.61Zm-.65.66L32,21,29.39,18.4,32,15.78Zm-5.88-.66-2.61-2.61,2.61-2.61,2.61,2.61Zm-.65.66L25.47,21,22.86,18.4l2.61-2.62Zm-5.88-.66-2.62-2.61,2.62-2.61,2.61,2.61Zm-.66.66L18.94,21,16.33,18.4l2.61-2.62Zm-5.88-.66-2.61-2.61,2.61-2.61,2.62,2.61ZM15,18.4,12.4,21,9.79,18.4l2.61-2.62Zm0,6.53L12.4,27.55,9.79,24.93l2.61-2.61Zm0,6.54L12.4,34.08,9.79,31.47l2.61-2.62ZM15,38,12.4,40.61,9.79,38l2.61-2.61Zm0,6.53L12.4,47.15,9.79,44.53l2.61-2.61Zm0,6.54L12.4,53.68,9.79,51.07l2.61-2.62Zm.65,12.41-2.61-2.61,2.61-2.62,2.62,2.62Zm.66-5.88L18.94,55l2.61,2.61-2.61,2.61Zm5.87,5.88-2.61-2.61,2.62-2.62,2.61,2.62Zm.66-5.88L25.47,55l2.62,2.61-2.62,2.61Zm5.88,5.88-2.61-2.61,2.61-2.62,2.61,2.62Zm.65-5.88L32,55l2.61,2.61L32,60.21Zm5.88,5.88-2.61-2.61,2.61-2.62,2.62,2.62Zm.66-5.88L38.54,55l2.61,2.61-2.61,2.61Zm8.49,3.27-2.61,2.61-2.62-2.61,2.62-2.62Zm0-6.54L41.81,57l-2.62-2.62,2.62-2.61Zm0-6.53-2.61,2.61L39.19,47.8l2.62-2.61Zm0-6.54-2.61,2.62-2.62-2.62,2.62-2.61Zm0-6.53-2.61,2.62-2.62-2.62,2.62-2.61Zm0-6.53-2.61,2.61L39.19,28.2l2.62-2.61Zm0-6.53-2.61,2.61-2.62-2.61,2.62-2.62Zm0-6.54-2.61,2.61-2.62-2.61,2.62-2.61ZM41.81,6,44.42,8.6l-2.61,2.61L39.19,8.6Zm-.66,5.89-2.61,2.61-2.61-2.62,2.61-2.61ZM35.27,6,37.89,8.6l-2.62,2.61L32.66,8.6Zm-.65,5.88L32,14.48l-2.62-2.62L32,9.25ZM28.74,6,31.35,8.6l-2.61,2.61L26.13,8.6Zm-.65,5.88-2.62,2.62-2.61-2.62,2.61-2.61ZM22.21,6,24.82,8.6l-2.61,2.61L19.59,8.6Zm-.66,5.88-2.61,2.62-2.61-2.62,2.61-2.61ZM15.67,6,18.29,8.6l-2.62,2.61L13.06,8.6ZM15,11.86,12.4,14.48,9.79,11.87,12.4,9.25ZM6.52,8.6,9.14,6,11.75,8.6,9.14,11.21Zm0,6.53,2.61-2.61,2.61,2.61L9.14,17.74Zm0,6.54,2.62-2.62,2.61,2.62L9.14,24.28Zm0,6.53,2.61-2.61,2.61,2.61L9.14,30.81Zm0,6.53,2.62-2.61,2.61,2.61L9.14,37.35Zm0,6.53,2.61-2.61,2.61,2.61L9.14,43.88Zm0,6.54,2.61-2.61,2.61,2.61L9.14,50.41Zm0,6.53,2.62-2.61,2.61,2.61L9.14,57Zm0,6.54,2.61-2.62,2.61,2.62L9.14,63.48Z"/><path class="cls-5" d="M9.3,64.13,12.4,61l3.11,3.1-.63.63h.33l.46-.46.47.46h.32l-.62-.63,3.1-3.1,3.1,3.1-.63.63h.33l.46-.46.47.46H23l-.63-.63,3.1-3.1,3.11,3.1-.63.63h.32l.47-.46.47.46h.32l-.63-.63L32,61l3.1,3.1-.63.63h.33l.46-.46.47.46h.32l-.62-.63,3.1-3.1,3.1,3.1-.62.63h.32l.47-.46.46.46h.33L42,64.13l3.1-3.1.27.27V61l-.1-.1.1-.11v-.32l-.27.26L42,57.6l3.1-3.1.27.26v-.33l-.1-.1.1-.1v-.32l-.27.26L42,51.07,45.07,48l.27.27V47.9l-.1-.1.1-.1v-.33l-.27.27L42,44.53l3.1-3.1.27.26v-.32l-.1-.11.1-.1v-.32l-.27.26L42,38l3.1-3.1.27.26v-.33l-.1-.1.1-.1V34.3l-.27.27L42,31.47l3.1-3.11.27.27V28.3l-.1-.1.1-.1v-.33l-.27.27L42,24.93l3.1-3.1.27.26v-.32l-.1-.1.1-.11v-.32l-.27.26L42,18.4l3.1-3.11.27.27v-.33l-.1-.1.1-.1V14.7l-.27.27L42,11.87l3.1-3.11.27.27V8.7l-.1-.1.1-.1V8.17l-.27.26L42,5.33l.63-.63h-.33l-.46.47-.47-.47H41l.62.63-3.1,3.1-3.1-3.1.62-.63h-.32l-.47.47-.46-.47h-.33l.63.63L32,8.43,28.9,5.33l.63-.63H29.2l-.46.47-.47-.47H28l.63.63-3.11,3.1-3.1-3.1L23,4.7h-.33l-.46.47-.47-.47h-.33l.63.63-3.1,3.1-3.1-3.1.62-.63h-.32l-.47.47-.46-.47h-.33l.63.63L12.4,8.43,9.3,5.33l.63-.63H9.6l-.46.47L8.67,4.7H8.35L9,5.33,5.87,8.43l-.26-.26V8.5l.1.1-.1.1V9l.26-.27L9,11.87,5.87,15l-.26-.27V15l.1.1-.1.1v.33l.26-.27L9,18.4,5.87,21.5l-.26-.26v.32l.1.11-.1.1v.32l.26-.26L9,24.93,5.87,28l-.26-.27v.33l.1.1-.1.1v.33l.26-.27L9,31.47l-3.11,3.1-.26-.27v.33l.1.1-.1.1v.33l.26-.26L9,38,5.87,41.1l-.26-.26v.32l.1.1-.1.11v.32l.26-.26L9,44.53,5.87,47.64l-.26-.27v.33l.1.1-.1.1v.33L5.87,48,9,51.07l-3.11,3.1-.26-.26v.32l.1.1-.1.1v.33l.26-.26L9,57.6,5.87,60.7l-.26-.26v.32l.1.11-.1.1v.33L5.87,61,9,64.13l-.63.63h.32l.47-.46.46.46h.33Zm0-6.53,3.1-3.1,3.11,3.1L12.4,60.7Zm16-16.34-3.1,3.11L19.1,41.26l3.11-3.1ZM19.1,34.73l3.11-3.1,3.1,3.1-3.1,3.11ZM22.37,38l3.1-3.1L28.58,38l-3.11,3.1Zm3.27-3.27,3.1-3.1,3.1,3.1-3.1,3.11Zm3.1,3.43,3.1,3.1-3.1,3.11-3.1-3.11ZM28.9,38,32,34.9l3.1,3.1L32,41.1Zm0-6.53L32,28.36l3.1,3.11L32,34.57Zm-.16-.17-3.1-3.1,3.1-3.1,3.1,3.1Zm-.16.17-3.11,3.1-3.1-3.1,3.1-3.11Zm-6.37-.17L19.1,28.2l3.11-3.1,3.1,3.1Zm-.17.17-3.1,3.1-3.1-3.1,3.1-3.11ZM22,38l-3.1,3.1L15.84,38l3.1-3.1Zm0,6.53-3.1,3.11-3.1-3.11,3.1-3.1Zm.17.17,3.1,3.1-3.1,3.1L19.1,47.8Zm.16-.17,3.1-3.1,3.11,3.1-3.11,3.11Zm6.37.17,3.1,3.1-3.1,3.1-3.1-3.1Zm.16-.17L32,41.43l3.1,3.1L32,47.64Zm6.37.17,3.11,3.1-3.11,3.1-3.1-3.1Zm-3.1-3.44,3.1-3.1,3.11,3.1-3.11,3.11Zm0-6.53,3.1-3.1,3.11,3.1-3.11,3.11Zm0-6.53,3.1-3.1,3.11,3.1-3.11,3.1Zm0-6.53,3.1-3.11,3.11,3.11-3.11,3.1Zm2.94,3.26L32,28,28.9,24.93,32,21.83Zm-6.37-.16-3.1-3.1,3.1-3.11,3.1,3.11Zm-.16.16L25.47,28l-3.1-3.11,3.1-3.1Zm-6.37-.16-3.11-3.1,3.11-3.11,3.1,3.11Zm-.17.16L18.94,28l-3.1-3.11,3.1-3.1Zm-6.37-.16-3.1-3.1,3.1-3.11,3.1,3.11Zm3.1,3.43-3.1,3.1-3.1-3.1,3.1-3.1Zm0,6.53-3.11,3.11-3.1-3.11,3.1-3.1Zm0,6.53-3.1,3.11-3.1-3.11,3.1-3.1Zm0,6.54-3.1,3.1-3.1-3.1,3.1-3.1Zm0,6.53-3.11,3.11-3.1-3.11,3.1-3.1Zm-2.94-3.26L18.94,48,22,51.07l-3.1,3.1Zm6.37.16,3.1,3.1-3.1,3.11L19.1,54.33Zm.16-.16L25.47,48l3.11,3.11-3.11,3.1Zm6.37.16,3.1,3.1-3.1,3.11-3.1-3.11Zm.16-.16L32,48l3.1,3.11L32,54.17Zm6.37.16,3.11,3.1-3.11,3.11-3.1-3.11Zm.17-.16L38.54,48l3.1,3.11-3.1,3.1Zm0-6.54,3.1-3.1,3.1,3.1-3.1,3.11Zm0-6.53,3.1-3.1,3.1,3.1-3.1,3.1Zm0-6.53,3.1-3.11,3.1,3.11-3.1,3.1Zm0-6.54,3.1-3.1,3.1,3.1L38.54,28Zm0-6.53,3.1-3.11,3.1,3.11-3.1,3.1Zm-.17-.17-3.1-3.1,3.1-3.1,3.11,3.1Zm-.16.17L32,21.5,28.9,18.4,32,15.29Zm-6.37-.17-3.1-3.1,3.1-3.1,3.1,3.1Zm-.16.17-3.11,3.1-3.1-3.1,3.1-3.11Zm-6.37-.17-3.11-3.1L22.21,12l3.1,3.1ZM22,18.4l-3.1,3.1-3.1-3.1,3.1-3.11Zm-6.37-.17-3.1-3.1,3.1-3.1,3.1,3.1Zm-.16.17L12.4,21.5,9.3,18.4l3.1-3.11Zm0,6.53L12.4,28,9.3,24.93l3.1-3.1Zm0,6.54-3.11,3.1-3.1-3.1,3.1-3.11Zm0,6.53L12.4,41.1,9.3,38l3.1-3.1Zm0,6.53L12.4,47.64,9.3,44.53l3.1-3.1Zm0,6.54-3.11,3.1-3.1-3.1L12.4,48ZM15.67,64l-3.1-3.1,3.1-3.11,3.1,3.11Zm.17-6.37,3.1-3.1L22,57.6l-3.1,3.1ZM22.2,64l-3.1-3.1,3.11-3.11,3.1,3.11Zm.17-6.37,3.1-3.1,3.11,3.1-3.11,3.1ZM28.74,64l-3.1-3.1,3.1-3.11,3.1,3.11Zm.16-6.37L32,54.5l3.1,3.1L32,60.7ZM35.27,64l-3.1-3.1,3.1-3.11,3.11,3.11Zm.17-6.37,3.1-3.1,3.1,3.1-3.1,3.1Zm9.47,3.27L41.81,64l-3.11-3.1,3.11-3.11Zm0-6.54-3.1,3.11L38.7,54.33l3.11-3.1Zm0-6.53-3.1,3.1L38.7,47.8l3.11-3.1Zm0-6.54-3.1,3.11L38.7,41.26l3.11-3.1Zm0-6.53-3.1,3.11L38.7,34.73l3.11-3.1Zm0-6.53-3.1,3.1L38.7,28.2l3.11-3.1Zm0-6.53-3.1,3.1-3.11-3.1,3.11-3.11Zm0-6.54-3.1,3.1-3.11-3.1L41.81,12Zm-3.1-9.64,3.1,3.11-3.1,3.1L38.7,8.6Zm-.17,6.38L38.54,15l-3.1-3.11,3.1-3.1ZM35.27,5.49,38.38,8.6l-3.11,3.1-3.1-3.1Zm-.16,6.37L32,15,28.9,11.86,32,8.76ZM28.74,5.49l3.1,3.11-3.1,3.1-3.1-3.1Zm-.16,6.37L25.47,15l-3.1-3.11,3.1-3.1ZM22.21,5.49l3.1,3.11-3.1,3.1L19.1,8.6ZM22,11.86,18.94,15l-3.1-3.11,3.1-3.1ZM15.67,5.49l3.1,3.11-3.1,3.1-3.1-3.1Zm-.16,6.37L12.4,15l-3.1-3.1,3.1-3.11ZM6,8.6,9.14,5.49l3.1,3.11-3.1,3.1Zm0,6.53L9.14,12l3.1,3.1-3.1,3.1Zm0,6.54,3.11-3.11,3.1,3.11-3.1,3.1ZM6,28.2l3.1-3.1,3.1,3.1-3.1,3.1Zm0,6.53,3.11-3.1,3.1,3.1-3.1,3.11Zm0,6.53,3.1-3.1,3.1,3.1-3.1,3.11ZM6,47.8l3.1-3.1,3.1,3.1-3.1,3.1Zm0,6.53,3.11-3.1,3.1,3.1-3.1,3.11Zm0,6.54,3.1-3.11,3.1,3.11L9.14,64Z"/><path class="cls-6" d="M43.56,2.85V66.61a2.32,2.32,0,0,1-2.31,2.31H2.76a2.76,2.76,0,0,1-1.24-2.31V2.85A2.77,2.77,0,0,1,2.76.54H41.25A2.32,2.32,0,0,1,43.56,2.85Z"/><rect class="cls-2" x="1.98" y="0.54" width="48.05" height="68.37" rx="2.31"/><rect class="cls-3" x="6.14" y="4.7" width="39.73" height="60.06" rx="0.92"/><path class="cls-4" d="M11,64.76l-.63-.63,2.61-2.61,2.62,2.61-.63.63h2.56l-.62-.63,2.61-2.61,2.61,2.61-.63.63H24l-.63-.63L26,61.52l2.62,2.61-.63.63h2.56l-.63-.63,2.62-2.61,2.61,2.61-.63.63h2.56l-.62-.63,2.61-2.61,2.61,2.61-.63.63h2.57L43,64.13l2.61-2.61.27.26V60l-.27.26L43,57.6,45.6,55l.27.26V53.41l-.27.27L43,51.06l2.61-2.61.27.27V46.88l-.27.27L43,44.53l2.61-2.61.27.26V40.35l-.27.26L43,38l2.61-2.61.27.26V33.81l-.27.27L43,31.46l2.61-2.61.27.27V27.28l-.27.26L43,24.93l2.61-2.61.27.26V20.75L45.6,21,43,18.4l2.61-2.62.27.27V14.21l-.27.27L43,11.86,45.6,9.25l.27.26V7.68l-.27.26L43,5.33l.63-.63H41.06l.62.63L39.07,7.94,36.46,5.33l.62-.63H34.52l.63.63L32.54,7.94,29.92,5.33l.63-.63H28l.62.63L26,7.94,23.39,5.33,24,4.7H21.45l.63.63L19.47,7.94,16.86,5.33l.62-.63H14.92l.63.63L12.93,7.94,10.32,5.33,11,4.7H8.39L9,5.33,6.4,7.94l-.26-.26V9.51l.26-.26L9,11.86,6.4,14.48l-.26-.27v1.84l.26-.27L9,18.4,6.4,21l-.26-.26v1.83l.26-.26L9,24.93,6.4,27.54l-.26-.26v1.84l.26-.27L9,31.46,6.4,34.08l-.26-.27v1.84l.26-.26L9,38,6.4,40.61l-.26-.26v1.83l.26-.26L9,44.53,6.4,47.15l-.26-.27v1.84l.26-.27L9,51.06,6.4,53.68l-.26-.27v1.84L6.4,55,9,57.6,6.4,60.21,6.14,60v1.83l.26-.26L9,64.13l-.63.63Zm-.63-7.16L12.93,55l2.62,2.61-2.62,2.61Zm15-16.34-2.62,2.62-2.61-2.62,2.61-2.61Zm-5.23-6.53,2.61-2.61,2.62,2.61-2.62,2.61ZM23.39,38,26,35.39,28.61,38,26,40.61Zm3.27-3.27,2.61-2.61,2.61,2.61-2.61,2.62Zm2.61,3.92,2.61,2.61-2.61,2.62-2.61-2.62Zm.65-.65,2.62-2.61L35.15,38l-2.61,2.61Zm0-6.54,2.62-2.61,2.61,2.61-2.61,2.62Zm-.65-.65L26.66,28.2l2.61-2.62,2.61,2.62Zm-.66.65L26,34.08l-2.61-2.62L26,28.85Zm-5.88-.65L20.12,28.2l2.61-2.62,2.62,2.62Zm-.65.65-2.61,2.62-2.61-2.62,2.61-2.61Zm0,6.54-2.61,2.61L16.86,38l2.61-2.61Zm0,6.53-2.61,2.62-2.61-2.62,2.61-2.61Zm.65.65,2.62,2.62-2.62,2.61L20.12,47.8Zm.66-.65L26,41.92l2.62,2.61L26,47.15Zm5.88.65,2.61,2.62-2.61,2.61L26.66,47.8Zm.65-.65,2.62-2.61,2.61,2.61-2.61,2.62Zm5.88.65,2.62,2.62L35.8,50.41,33.19,47.8Zm-2.61-3.92,2.61-2.61,2.62,2.61L35.8,43.88Zm0-6.53,2.61-2.61,2.62,2.61L35.8,37.35Zm0-6.53,2.61-2.62,2.62,2.62L35.8,30.81Zm0-6.54,2.61-2.61,2.62,2.61L35.8,24.28Zm2,3.27-2.61,2.61-2.62-2.61,2.62-2.61Zm-5.88-.65-2.61-2.62,2.61-2.61,2.61,2.61Zm-.65.65L26,27.54l-2.61-2.61L26,22.32Zm-5.89-.65-2.61-2.62,2.61-2.61,2.62,2.61Zm-.65.65-2.61,2.61-2.61-2.61,2.61-2.61Zm-5.88-.65-2.61-2.62,2.61-2.61,2.61,2.61Zm2.61,3.92L16.2,30.81,13.59,28.2l2.61-2.62Zm0,6.53L16.2,37.35l-2.61-2.62,2.61-2.61Zm0,6.53L16.2,43.88l-2.61-2.62,2.61-2.61Zm0,6.54L16.2,50.41,13.59,47.8l2.61-2.62Zm0,6.53L16.2,57l-2.61-2.62,2.61-2.61Zm-1.95-3.27,2.61-2.61,2.61,2.61-2.61,2.62Zm5.87.66,2.62,2.61L22.73,57l-2.61-2.62Zm.66-.66L26,48.45l2.62,2.61L26,53.68Zm5.88.66,2.61,2.61L29.27,57l-2.61-2.62Zm.65-.66,2.62-2.61,2.61,2.61-2.61,2.62Zm5.88.66,2.62,2.61L35.8,57l-2.61-2.62Zm.66-.66,2.61-2.61,2.61,2.61-2.61,2.62Zm0-6.53,2.61-2.61,2.61,2.61-2.61,2.62Zm0-6.53,2.61-2.61L41.68,38l-2.61,2.61Zm0-6.54,2.61-2.61,2.61,2.61-2.61,2.62Zm0-6.53,2.61-2.61,2.61,2.61-2.61,2.61Zm0-6.53,2.61-2.62,2.61,2.62L39.07,21Zm-.66-.66-2.61-2.61,2.61-2.61,2.62,2.61Zm-.65.66L32.54,21,29.92,18.4l2.62-2.62Zm-5.88-.66-2.61-2.61,2.61-2.61,2.61,2.61Zm-.65.66L26,21,23.39,18.4,26,15.78Zm-5.89-.66-2.61-2.61,2.61-2.61,2.62,2.61Zm-.65.66L19.47,21,16.86,18.4l2.61-2.62Zm-5.88-.66-2.61-2.61,2.61-2.61,2.61,2.61Zm-.65.66L12.93,21,10.32,18.4l2.61-2.62Zm0,6.53-2.62,2.61-2.61-2.61,2.61-2.61Zm0,6.53-2.62,2.62-2.61-2.62,2.61-2.61Zm0,6.54-2.62,2.61L10.32,38l2.61-2.61Zm0,6.53-2.62,2.62-2.61-2.62,2.61-2.61Zm0,6.53-2.62,2.62-2.61-2.62,2.61-2.61Zm.65,12.42-2.61-2.61,2.61-2.62,2.61,2.62Zm.66-5.88L19.47,55l2.61,2.61-2.61,2.61Zm5.87,5.88-2.61-2.61,2.61-2.62,2.62,2.62Zm.66-5.88L26,55l2.61,2.61L26,60.21Zm5.88,5.88-2.61-2.61,2.61-2.62,2.61,2.62Zm.65-5.88L32.54,55l2.61,2.62-2.61,2.61Zm5.88,5.88-2.61-2.61,2.61-2.62,2.62,2.62Zm.66-5.88L39.07,55l2.61,2.62-2.61,2.61ZM45,60.87l-2.61,2.61-2.62-2.61,2.62-2.62Zm0-6.54L42.34,57l-2.62-2.62,2.62-2.61Zm0-6.53-2.61,2.61L39.72,47.8l2.62-2.62Zm0-6.54-2.61,2.62-2.62-2.62,2.62-2.61Zm0-6.53-2.61,2.62-2.62-2.62,2.62-2.61Zm0-6.53-2.61,2.61L39.72,28.2l2.62-2.62Zm0-6.54-2.61,2.62-2.62-2.62,2.62-2.61Zm0-6.53-2.61,2.61-2.62-2.61,2.62-2.61ZM42.34,6,45,8.6l-2.61,2.61L39.72,8.6Zm-.66,5.88-2.61,2.62-2.61-2.62,2.61-2.61ZM35.8,6,38.42,8.6,35.8,11.21,33.19,8.6Zm-.65,5.88-2.61,2.62-2.62-2.62,2.62-2.61ZM29.27,6,31.88,8.6l-2.61,2.61L26.66,8.6Zm-.65,5.88L26,14.48l-2.61-2.62L26,9.25ZM22.73,6,25.35,8.6l-2.62,2.61L20.12,8.6Zm-.65,5.88-2.61,2.62-2.61-2.62,2.61-2.61ZM16.2,6,18.81,8.6,16.2,11.21,13.59,8.6Zm-.65,5.88-2.62,2.62-2.61-2.62,2.61-2.61ZM7.05,8.6,9.67,6,12.28,8.6,9.67,11.21Zm0,6.53,2.61-2.61,2.61,2.61L9.67,17.74Zm0,6.53,2.62-2.61,2.61,2.61L9.67,24.28Zm0,6.54,2.61-2.62,2.61,2.62L9.67,30.81Zm0,6.53,2.62-2.61,2.61,2.61L9.67,37.35Zm0,6.53,2.61-2.61,2.61,2.61L9.67,43.88Zm0,6.54,2.61-2.62,2.61,2.62L9.67,50.41Zm0,6.53,2.62-2.61,2.61,2.61L9.67,57Zm0,6.54,2.61-2.62,2.61,2.62L9.67,63.48Z"/><path class="cls-5" d="M9.83,64.13l3.1-3.1L16,64.13l-.63.63h.33l.46-.46.47.46H17l-.62-.63,3.1-3.1,3.1,3.1-.63.63h.33l.46-.46.47.46h.33l-.63-.63L26,61l3.11,3.1-.63.63h.32l.47-.46.46.46h.33l-.63-.63L32.54,61l3.1,3.1-.63.63h.33l.46-.46.47.46h.32L36,64.13l3.1-3.1,3.1,3.1-.63.63h.33l.47-.46.46.46h.33l-.63-.63L45.6,61l.27.26V61l-.1-.1.1-.11v-.32l-.27.26-3.1-3.1,3.1-3.1.27.26v-.33l-.1-.1.1-.1V53.9l-.27.27-3.1-3.11L45.6,48l.27.27V47.9l-.1-.1.1-.1v-.33l-.27.27-3.1-3.11,3.1-3.1.27.26v-.32l-.1-.11.1-.1v-.32l-.27.26L42.5,38l3.1-3.11.27.27v-.33l-.1-.1.1-.1V34.3l-.27.27-3.1-3.11,3.1-3.1.27.27V28.3l-.1-.1.1-.1v-.33L45.6,28l-3.1-3.1,3.1-3.1.27.26v-.33l-.1-.1.1-.1v-.32l-.27.26-3.1-3.1,3.1-3.11.27.27v-.33l-.1-.1.1-.1V14.7L45.6,15l-3.1-3.11,3.1-3.1.27.26V8.7l-.1-.1.1-.11V8.17l-.27.26-3.1-3.1.63-.63H42.8l-.46.47-.47-.47h-.32l.62.63-3.1,3.1L36,5.33l.62-.63h-.32l-.47.47-.46-.47H35l.63.63-3.1,3.1-3.11-3.1.63-.63h-.33l-.46.47L28.8,4.7h-.32l.63.63L26,8.43l-3.1-3.1.63-.63H23.2l-.47.47-.46-.47h-.33l.63.63-3.1,3.1-3.1-3.1L17,4.7h-.32l-.47.47-.46-.47h-.33l.63.63-3.11,3.1-3.1-3.1.63-.63h-.33l-.46.47L9.2,4.7H8.88l.62.63L6.4,8.43l-.26-.26v.32l.1.11-.1.1V9l.26-.26,3.1,3.1L6.4,15l-.26-.27V15l.1.1-.1.1v.33l.26-.27L9.5,18.4,6.4,21.5l-.26-.26v.32l.1.1-.1.1v.33l.26-.26,3.1,3.1L6.4,28l-.26-.26v.33l.1.1-.1.1v.33l.26-.27,3.1,3.1L6.4,34.57l-.26-.27v.33l.1.1-.1.1v.33l.26-.27L9.5,38,6.4,41.1l-.26-.26v.32l.1.1-.1.11v.32l.26-.26,3.1,3.1L6.4,47.64l-.26-.27v.33l.1.1-.1.1v.33L6.4,48l3.1,3.1L6.4,54.17l-.26-.27v.33l.1.1-.1.1v.33l.26-.26,3.1,3.1L6.4,60.7l-.26-.26v.32l.1.11-.1.1v.32L6.4,61l3.1,3.1-.62.63H9.2l.47-.46.46.46h.33Zm0-6.53,3.1-3.1L16,57.6l-3.11,3.1Zm16-16.34-3.11,3.11-3.1-3.11,3.1-3.1Zm-6.21-6.53,3.1-3.1,3.11,3.1-3.11,3.1ZM22.9,38,26,34.89,29.11,38,26,41.1Zm3.27-3.27,3.1-3.1,3.1,3.1-3.1,3.11Zm3.1,3.43,3.1,3.1-3.1,3.11-3.1-3.11Zm.16-.16,3.11-3.11L35.64,38l-3.1,3.1Zm0-6.54,3.11-3.1,3.1,3.1-3.1,3.11Zm-.16-.16-3.1-3.1,3.1-3.11,3.1,3.11Zm-.16.16L26,34.57l-3.1-3.11,3.1-3.1Zm-6.38-.16-3.1-3.1,3.1-3.11,3.11,3.11Zm-.16.16-3.1,3.11-3.1-3.11,3.1-3.1Zm0,6.54-3.1,3.1L16.37,38l3.1-3.11Zm0,6.53-3.1,3.11-3.1-3.11,3.1-3.1Zm.16.17,3.11,3.1-3.11,3.1-3.1-3.1Zm.17-.17,3.1-3.1,3.11,3.1L26,47.64Zm6.37.17,3.1,3.1-3.1,3.1-3.1-3.1Zm.16-.17,3.11-3.1,3.1,3.1-3.1,3.11Zm6.37.17,3.11,3.1L35.8,50.9l-3.1-3.1Zm-3.1-3.44,3.1-3.1,3.11,3.1L35.8,44.37Zm0-6.53,3.1-3.1,3.11,3.1L35.8,37.84Zm0-6.53,3.1-3.11,3.11,3.11L35.8,31.3Zm0-6.54,3.1-3.1,3.11,3.1L35.8,24.77Zm2.94,3.27L32.54,28l-3.11-3.1,3.11-3.1Zm-6.37-.16-3.1-3.11,3.1-3.1,3.1,3.1Zm-.16.16L26,28l-3.1-3.1,3.1-3.1Zm-6.38-.16-3.1-3.11,3.1-3.1,3.11,3.1Zm-.16.16L19.47,28l-3.1-3.1,3.1-3.1Zm-6.37-.16-3.1-3.11,3.1-3.1,3.1,3.1Zm3.1,3.43-3.1,3.1-3.1-3.1,3.1-3.11Zm0,6.53L16.2,37.84l-3.1-3.11,3.1-3.1Zm0,6.53-3.1,3.11-3.1-3.11,3.1-3.1Zm0,6.54-3.1,3.1-3.1-3.1,3.1-3.1Zm0,6.53L16.2,57.44l-3.1-3.11,3.1-3.1Zm-2.94-3.27,3.1-3.1,3.1,3.1-3.1,3.11Zm6.36.17,3.11,3.1-3.11,3.11-3.1-3.11Zm.17-.17L26,48l3.11,3.1L26,54.17Zm6.37.17,3.1,3.1-3.1,3.11-3.1-3.11Zm.16-.17L32.54,48l3.1,3.1-3.1,3.11Zm6.37.17,3.11,3.1L35.8,57.44l-3.1-3.11Zm.17-.17,3.1-3.1,3.1,3.1-3.1,3.11Zm0-6.53,3.1-3.1,3.1,3.1-3.1,3.11ZM36,38l3.1-3.11L42.17,38l-3.1,3.1Zm0-6.54,3.1-3.1,3.1,3.1-3.1,3.11Zm0-6.53,3.1-3.1,3.1,3.1L39.07,28Zm0-6.53,3.1-3.11,3.1,3.11-3.1,3.1Zm-.17-.17-3.1-3.1L35.8,12l3.11,3.1Zm-.16.17-3.1,3.1-3.11-3.1,3.11-3.11Zm-6.37-.17-3.1-3.1,3.1-3.1,3.1,3.1Zm-.16.17L26,21.5l-3.1-3.1L26,15.29Zm-6.38-.17-3.1-3.1,3.1-3.1,3.11,3.1Zm-.16.17-3.1,3.1-3.1-3.1,3.1-3.11Zm-6.37-.17-3.1-3.1L16.2,12l3.1,3.1ZM16,18.4l-3.11,3.1-3.1-3.1,3.1-3.11Zm0,6.53L12.93,28l-3.1-3.1,3.1-3.1Zm0,6.53-3.11,3.11-3.1-3.11,3.1-3.1ZM16,38l-3.11,3.1L9.83,38l3.1-3.11Zm0,6.53-3.11,3.11-3.1-3.11,3.1-3.1Zm0,6.53-3.11,3.11-3.1-3.11,3.1-3.1ZM16.2,64l-3.1-3.1,3.1-3.11,3.1,3.11Zm.17-6.37,3.1-3.1,3.1,3.1-3.1,3.1ZM22.73,64l-3.1-3.1,3.1-3.11,3.11,3.11Zm.17-6.37L26,54.5l3.11,3.1L26,60.7ZM29.27,64l-3.1-3.1,3.1-3.11,3.1,3.11Zm.16-6.37,3.11-3.1,3.1,3.1-3.1,3.1ZM35.8,64l-3.1-3.1,3.1-3.11,3.11,3.11ZM36,57.6l3.1-3.1,3.1,3.1-3.1,3.1Zm9.47,3.27L42.34,64l-3.11-3.1,3.11-3.11Zm0-6.54-3.1,3.11-3.11-3.11,3.11-3.1Zm0-6.53-3.1,3.1-3.11-3.1,3.11-3.1Zm0-6.54-3.1,3.11-3.11-3.11,3.11-3.1Zm0-6.53-3.1,3.11-3.11-3.11,3.11-3.1Zm0-6.53-3.1,3.1-3.11-3.1,3.11-3.11Zm0-6.54-3.1,3.11-3.11-3.11,3.11-3.1Zm0-6.53-3.1,3.1-3.11-3.1L42.34,12Zm-3.1-9.64,3.1,3.11-3.1,3.1L39.23,8.6Zm-.17,6.37L39.07,15,36,11.86l3.1-3.1ZM35.8,5.49,38.91,8.6,35.8,11.7,32.7,8.6Zm-.16,6.37L32.54,15l-3.11-3.11,3.11-3.1ZM29.27,5.49l3.1,3.11-3.1,3.1-3.1-3.1Zm-.16,6.37L26,15l-3.1-3.11L26,8.76ZM22.73,5.49,25.84,8.6l-3.11,3.1-3.1-3.1Zm-.16,6.37L19.47,15l-3.1-3.11,3.1-3.1ZM16.2,5.49,19.3,8.6l-3.1,3.1L13.1,8.6ZM16,11.86,12.93,15l-3.1-3.11,3.1-3.1ZM6.56,8.6,9.67,5.49l3.1,3.11-3.1,3.1Zm0,6.53L9.67,12l3.1,3.1-3.1,3.1Zm0,6.53,3.11-3.1,3.1,3.1-3.1,3.11Zm0,6.54,3.11-3.11,3.1,3.11-3.1,3.1Zm0,6.53,3.11-3.1,3.1,3.1-3.1,3.11Zm0,6.53,3.11-3.1,3.1,3.1-3.1,3.11Zm0,6.54,3.11-3.1,3.1,3.1-3.1,3.1Zm0,6.53,3.11-3.1,3.1,3.1-3.1,3.11Zm0,6.54,3.11-3.11,3.1,3.11L9.67,64Z"/><path class="cls-6" d="M44.18,2.85V66.61a2.32,2.32,0,0,1-2.31,2.31H3.38a2.76,2.76,0,0,1-1.24-2.31V2.85A2.77,2.77,0,0,1,3.38.54H41.87A2.32,2.32,0,0,1,44.18,2.85Z"/><rect class="cls-2" x="2.6" y="0.54" width="48.05" height="68.37" rx="2.31"/><rect class="cls-3" x="6.76" y="4.7" width="39.73" height="60.06" rx="0.92"/><path class="cls-4" d="M11.57,64.76l-.63-.63,2.62-2.61,2.61,2.61-.63.63h2.57l-.63-.63,2.61-2.61,2.61,2.61-.62.63h2.56L24,64.13l2.61-2.61,2.62,2.61-.63.63h2.56l-.63-.63,2.62-2.61,2.61,2.61-.63.63h2.57l-.63-.63,2.61-2.61,2.61,2.61-.62.63h2.56l-.63-.63,2.62-2.61.26.26V60l-.26.26L43.61,57.6,46.23,55l.26.26V53.41l-.26.27-2.62-2.62,2.61-2.61.27.27V46.88l-.27.27-2.61-2.62,2.61-2.61.27.26V40.35l-.27.26L43.61,38l2.62-2.61.26.26V33.81l-.26.27-2.62-2.62,2.62-2.61.26.27V27.28l-.26.26-2.62-2.61,2.61-2.61.27.26V20.75l-.27.26L43.61,18.4l2.61-2.62.27.27V14.21l-.27.27-2.61-2.62,2.62-2.61.26.26V7.68l-.26.26L43.61,5.33l.63-.63H41.68l.62.63L39.69,7.94,37.08,5.33l.63-.63H35.14l.63.63L33.16,7.94,30.54,5.33l.63-.63H28.61l.63.63L26.62,7.94,24,5.33l.63-.63H22.08l.63.63L20.09,7.94,17.48,5.33l.63-.63H15.54l.63.63L13.56,7.94,10.94,5.33l.63-.63H9l.63.63L7,7.94l-.26-.26V9.51L7,9.25l2.62,2.61L7,14.48l-.26-.27v1.84L7,15.78,9.64,18.4,7,21l-.26-.26v1.83L7,22.32l2.62,2.61L7,27.54l-.26-.26v1.84L7,28.85l2.62,2.61L7,34.08l-.26-.27v1.84L7,35.39,9.64,38,7,40.61l-.26-.26v1.83L7,41.92l2.62,2.61L7,47.15l-.26-.27v1.84L7,48.45l2.62,2.61L7,53.68l-.26-.27v1.84L7,55,9.64,57.6,7,60.21,6.76,60v1.83L7,61.52l2.62,2.61L9,64.76Zm-.63-7.16L13.56,55l2.61,2.61-2.61,2.61ZM26,41.26l-2.61,2.62-2.62-2.62,2.62-2.61Zm-5.23-6.53,2.62-2.61L26,34.73l-2.61,2.61ZM24,38l2.61-2.61L29.24,38l-2.62,2.61Zm3.27-3.27,2.61-2.61,2.61,2.61-2.61,2.62Zm2.61,3.92,2.61,2.61-2.61,2.62-2.61-2.62Zm.65-.65,2.62-2.61L35.77,38l-2.61,2.61Zm0-6.54,2.62-2.61,2.61,2.61-2.61,2.62Zm-.65-.65L27.28,28.2l2.61-2.62L32.5,28.2Zm-.65.65-2.62,2.62L24,31.46l2.61-2.61Zm-5.88-.65L20.74,28.2l2.62-2.62L26,28.2Zm-.65.65-2.62,2.62-2.61-2.62,2.61-2.61Zm0,6.54-2.62,2.61L17.48,38l2.61-2.61Zm0,6.53-2.62,2.62-2.61-2.62,2.61-2.61Zm.65.65L26,47.8l-2.61,2.61L20.74,47.8Zm.65-.65,2.61-2.61,2.62,2.61-2.62,2.62Zm5.88.65L32.5,47.8l-2.61,2.61L27.28,47.8Zm.65-.65,2.62-2.61,2.61,2.61-2.61,2.62Zm5.89.65L39,47.8l-2.61,2.61L33.81,47.8Zm-2.62-3.92,2.62-2.61L39,41.26l-2.61,2.62Zm0-6.53,2.62-2.61L39,34.73l-2.61,2.62Zm0-6.53,2.62-2.62L39,28.2l-2.61,2.61Zm0-6.54,2.62-2.61L39,21.66l-2.61,2.62Zm2,3.27-2.61,2.61-2.62-2.61,2.62-2.61Zm-5.88-.65-2.61-2.62,2.61-2.61,2.61,2.61Zm-.65.65-2.62,2.61L24,24.93l2.61-2.61Zm-5.88-.65-2.62-2.62,2.62-2.61L26,21.66Zm-.65.65-2.62,2.61-2.61-2.61,2.61-2.61Zm-5.89-.65-2.61-2.62,2.61-2.61,2.62,2.61Zm2.62,3.92-2.62,2.61L14.21,28.2l2.61-2.62Zm0,6.53-2.62,2.62-2.61-2.62,2.61-2.61Zm0,6.53-2.62,2.62-2.61-2.62,2.61-2.61Zm0,6.54-2.62,2.61L14.21,47.8l2.61-2.62Zm0,6.53L16.82,57l-2.61-2.62,2.61-2.61Zm-2-3.27,2.61-2.61,2.62,2.61-2.62,2.62Zm5.88.66L26,54.33,23.36,57l-2.62-2.62Zm.65-.66,2.61-2.61,2.62,2.61-2.62,2.62Zm5.88.66,2.61,2.61L29.89,57l-2.61-2.62Zm.65-.66,2.62-2.61,2.61,2.61-2.61,2.62Zm5.89.66L39,54.33,36.43,57l-2.62-2.62Zm.65-.66,2.61-2.61,2.61,2.61-2.61,2.62Zm0-6.53,2.61-2.61,2.61,2.61-2.61,2.62Zm0-6.53,2.61-2.61L42.3,38l-2.61,2.61Zm0-6.54,2.61-2.61,2.61,2.61-2.61,2.62Zm0-6.53,2.61-2.61,2.61,2.61-2.61,2.61Zm0-6.53,2.61-2.62L42.3,18.4,39.69,21Zm-.65-.66-2.62-2.61,2.62-2.61L39,15.13Zm-.66.66L33.16,21,30.54,18.4l2.62-2.62Zm-5.88-.66-2.61-2.61,2.61-2.61,2.61,2.61Zm-.65.66L26.62,21,24,18.4l2.61-2.62Zm-5.88-.66-2.62-2.61,2.62-2.61L26,15.13Zm-.65.66L20.09,21,17.48,18.4l2.61-2.62Zm-5.89-.66-2.61-2.61,2.61-2.61,2.62,2.61Zm-.65.66L13.56,21,10.94,18.4l2.62-2.62Zm0,6.53-2.61,2.61-2.62-2.61,2.62-2.61Zm0,6.53-2.61,2.62-2.62-2.62,2.62-2.61Zm0,6.54-2.61,2.61L10.94,38l2.62-2.61Zm0,6.53-2.61,2.62-2.62-2.62,2.62-2.61Zm0,6.53-2.61,2.62-2.62-2.62,2.62-2.61Zm.65,12.42-2.61-2.61,2.61-2.62,2.62,2.62Zm.66-5.88L20.09,55l2.62,2.61-2.62,2.61Zm5.88,5.88-2.62-2.61,2.62-2.62L26,60.87ZM24,57.6,26.62,55l2.62,2.61-2.62,2.61Zm5.88,5.88-2.61-2.61,2.61-2.62,2.61,2.62Zm.65-5.88L33.16,55l2.61,2.62-2.61,2.61Zm5.89,5.88-2.62-2.61,2.62-2.62L39,60.87Zm.65-5.88L39.69,55,42.3,57.6l-2.61,2.61Zm8.49,3.27L43,63.48l-2.61-2.61L43,58.25Zm0-6.54L43,57l-2.61-2.62L43,51.72Zm0-6.53L43,50.41,40.34,47.8,43,45.18Zm0-6.54L43,43.88l-2.61-2.62L43,38.65Zm0-6.53L43,37.35l-2.61-2.62L43,32.12Zm0-6.53L43,30.81,40.35,28.2,43,25.58Zm0-6.54L43,24.28l-2.61-2.62L43,19.05Zm0-6.53L43,17.74l-2.61-2.61L43,12.52ZM43,6,45.57,8.6,43,11.21,40.35,8.6Zm-.66,5.88-2.61,2.62-2.61-2.62,2.61-2.61ZM36.43,6,39,8.6l-2.61,2.61L33.81,8.6Zm-.66,5.88-2.61,2.62-2.62-2.62,2.62-2.61ZM29.89,6,32.5,8.6l-2.61,2.61L27.28,8.6Zm-.65,5.88-2.62,2.62L24,11.86l2.61-2.61ZM23.36,6,26,8.6l-2.61,2.61L20.74,8.6Zm-.65,5.88-2.62,2.62-2.61-2.62,2.61-2.61ZM16.82,6,19.44,8.6l-2.62,2.61L14.21,8.6Zm-.65,5.88-2.61,2.62-2.62-2.62,2.62-2.61ZM7.68,8.6,10.29,6,12.9,8.6l-2.61,2.61Zm0,6.53,2.61-2.61,2.61,2.61-2.61,2.61Zm0,6.53,2.61-2.61,2.61,2.61-2.61,2.62Zm0,6.54,2.61-2.62L12.9,28.2l-2.61,2.61Zm0,6.53,2.61-2.61,2.61,2.61-2.61,2.62Zm0,6.53,2.61-2.61,2.61,2.61-2.61,2.62Zm0,6.54,2.61-2.62L12.9,47.8l-2.61,2.61Zm0,6.53,2.61-2.61,2.61,2.61L10.29,57Zm0,6.54,2.61-2.62,2.62,2.62-2.62,2.61Z"/><path class="cls-5" d="M10.45,64.13,13.56,61l3.1,3.1-.63.63h.33l.46-.46.47.46h.33L17,64.13l3.1-3.1,3.1,3.1-.62.63h.32l.47-.46.46.46h.33l-.63-.63,3.1-3.1,3.11,3.1-.63.63h.33l.46-.46.47.46h.32l-.63-.63L33.16,61l3.1,3.1-.63.63H36l.47-.46.46.46h.33l-.63-.63,3.1-3.1,3.1,3.1-.62.63h.32L43,64.3l.46.46h.33l-.63-.63L46.23,61l.26.26V61l-.1-.1.1-.11v-.32l-.26.26-3.11-3.1,3.11-3.1.26.26v-.33l-.1-.1.1-.1V53.9l-.26.27-3.11-3.11,3.1-3.1.27.27V47.9l-.1-.1.1-.1v-.33l-.27.27-3.1-3.11,3.1-3.1.27.26v-.32l-.1-.11.1-.1v-.32l-.27.26L43.12,38l3.11-3.11.26.27v-.33l-.1-.1.1-.1V34.3l-.26.27-3.11-3.11,3.11-3.1.26.27V28.3l-.1-.1.1-.1v-.33l-.26.26-3.11-3.1,3.1-3.1.27.26v-.33l-.1-.1.1-.1v-.32l-.27.26-3.1-3.1,3.1-3.11.27.27v-.33l-.1-.1.1-.1V14.7l-.27.27-3.1-3.11,3.11-3.1.26.26V8.7l-.1-.1.1-.11V8.17l-.26.26-3.11-3.1.63-.63h-.33L43,5.17l-.47-.47h-.32l.62.63-3.1,3.1-3.1-3.1.63-.63h-.33l-.46.47L36,4.7h-.33l.63.63-3.1,3.1-3.11-3.1.63-.63h-.32l-.47.47-.46-.47H29.1l.63.63-3.11,3.1-3.1-3.1.63-.63h-.33l-.46.47-.47-.47h-.32l.62.63-3.1,3.1L17,5.33l.63-.63h-.33l-.47.47-.46-.47H16l.63.63-3.1,3.1-3.11-3.1.63-.63h-.32l-.47.47L9.82,4.7H9.5l.63.63L7,8.43l-.26-.26v.32l.1.11-.1.1V9L7,8.76l3.11,3.1L7,15l-.26-.27V15l.1.1-.1.1v.33L7,15.29l3.11,3.11L7,21.5l-.26-.26v.32l.1.1-.1.1v.33L7,21.83l3.11,3.1L7,28l-.26-.26v.33l.1.1-.1.1v.33L7,28.36l3.11,3.1L7,34.57l-.26-.27v.33l.1.1-.1.1v.33L7,34.89,10.13,38,7,41.1l-.26-.26v.32l.1.1-.1.11v.32L7,41.43l3.11,3.1L7,47.64l-.26-.27v.33l.1.1-.1.1v.33L7,48l3.11,3.1L7,54.17l-.26-.27v.33l.1.1-.1.1v.33L7,54.5l3.11,3.1L7,60.7l-.26-.26v.32l.1.11-.1.1v.32L7,61l3.11,3.1-.63.63h.33l.46-.46.47.46h.32Zm0-6.53,3.11-3.1,3.1,3.1-3.1,3.1Zm16-16.34-3.1,3.11-3.11-3.11,3.11-3.1Zm-6.21-6.53,3.11-3.1,3.1,3.1-3.1,3.1ZM23.52,38l3.1-3.11L29.73,38l-3.11,3.1Zm3.27-3.27,3.1-3.1,3.1,3.1-3.1,3.11Zm3.1,3.43L33,41.26l-3.11,3.11-3.1-3.11Zm.16-.16,3.11-3.11L36.26,38l-3.1,3.1Zm0-6.54,3.11-3.1,3.1,3.1-3.1,3.11Zm-.16-.16-3.1-3.1,3.1-3.11L33,28.2Zm-.16.16-3.11,3.11-3.1-3.11,3.1-3.1Zm-6.37-.16-3.11-3.1,3.11-3.11,3.1,3.11Zm-.17.16-3.1,3.11L17,31.46l3.1-3.1Zm0,6.54-3.1,3.1L17,38l3.1-3.11Zm0,6.53-3.1,3.11L17,44.53l3.1-3.1Zm.17.17,3.1,3.1-3.1,3.1-3.11-3.1Zm.16-.17,3.1-3.1,3.11,3.1-3.11,3.11Zm6.37.17L33,47.8l-3.11,3.1-3.1-3.1Zm.16-.17,3.11-3.1,3.1,3.1-3.1,3.11Zm6.38.17,3.1,3.1-3.1,3.1-3.11-3.1Zm-3.11-3.44,3.11-3.1,3.1,3.1-3.1,3.11Zm0-6.53,3.11-3.1,3.1,3.1-3.1,3.11Zm0-6.53,3.11-3.11,3.1,3.11-3.1,3.1Zm0-6.54,3.11-3.1,3.1,3.1-3.1,3.11Zm2.94,3.27L33.16,28l-3.11-3.1,3.11-3.1Zm-6.37-.16-3.1-3.11,3.1-3.1L33,21.66Zm-.16.16L26.62,28l-3.1-3.1,3.1-3.1Zm-6.37-.16-3.11-3.11,3.11-3.1,3.1,3.1Zm-.17.16L20.09,28,17,24.93l3.1-3.1Zm-6.37-.16-3.1-3.11,3.1-3.1,3.11,3.1Zm3.11,3.43-3.11,3.1-3.1-3.1,3.1-3.11Zm0,6.53-3.11,3.11-3.1-3.11,3.1-3.1Zm0,6.53-3.11,3.11-3.1-3.11,3.1-3.1Zm0,6.54-3.11,3.1-3.1-3.1,3.1-3.1Zm0,6.53-3.11,3.11-3.1-3.11,3.1-3.1ZM17,51.06l3.1-3.1,3.1,3.1-3.1,3.11Zm6.37.17,3.1,3.1-3.1,3.11-3.11-3.11Zm.16-.17,3.1-3.1,3.11,3.1-3.11,3.11Zm6.37.17L33,54.33l-3.11,3.11-3.1-3.11Zm.16-.17L33.16,48l3.1,3.1-3.1,3.11Zm6.38.17,3.1,3.1-3.1,3.11-3.11-3.11Zm.16-.17,3.1-3.1,3.1,3.1-3.1,3.11Zm0-6.53,3.1-3.1,3.1,3.1-3.1,3.11Zm0-6.53,3.1-3.11L42.79,38l-3.1,3.1Zm0-6.54,3.1-3.1,3.1,3.1-3.1,3.11Zm0-6.53,3.1-3.1,3.1,3.1L39.69,28Zm0-6.53,3.1-3.11,3.1,3.11-3.1,3.1Zm-.16-.17-3.11-3.1L36.43,12l3.1,3.1Zm-.17.17-3.1,3.1-3.11-3.1,3.11-3.11Zm-6.37-.17-3.1-3.1,3.1-3.1L33,15.13Zm-.16.17-3.11,3.1-3.1-3.1,3.1-3.11Zm-6.37-.17-3.11-3.1L23.36,12l3.1,3.1Zm-.17.17-3.1,3.1L17,18.4l3.1-3.11Zm-6.37-.17-3.1-3.1,3.1-3.1,3.11,3.1Zm-.16.17-3.1,3.1-3.11-3.1,3.11-3.11Zm0,6.53L13.56,28l-3.11-3.1,3.11-3.1Zm0,6.53-3.1,3.11-3.11-3.11,3.11-3.1Zm0,6.54-3.1,3.1L10.45,38l3.11-3.11Zm0,6.53-3.1,3.11-3.11-3.11,3.11-3.1Zm0,6.53-3.1,3.11-3.11-3.11L13.56,48ZM16.82,64l-3.1-3.1,3.1-3.11,3.11,3.11ZM17,57.6l3.1-3.1,3.1,3.1-3.1,3.1ZM23.36,64l-3.11-3.1,3.11-3.11,3.1,3.11Zm.16-6.37,3.1-3.1,3.11,3.1-3.11,3.1ZM29.89,64l-3.1-3.1,3.1-3.11L33,60.87Zm.16-6.37,3.11-3.1,3.1,3.1-3.1,3.1ZM36.43,64l-3.11-3.1,3.11-3.11,3.1,3.11Zm.16-6.37,3.1-3.1,3.1,3.1-3.1,3.1Zm9.47,3.27L43,64l-3.1-3.1L43,57.76Zm0-6.54L43,57.44l-3.1-3.11,3.1-3.1Zm0-6.53L43,50.9l-3.11-3.1L43,44.7Zm0-6.54L43,44.37l-3.1-3.11,3.1-3.1Zm0-6.53L43,37.84l-3.1-3.11,3.1-3.1Zm0-6.53L43,31.3l-3.1-3.1L43,25.09Zm0-6.54L43,24.77l-3.1-3.11,3.1-3.1Zm0-6.53L43,18.23l-3.1-3.1L43,12ZM43,5.49l3.1,3.11L43,11.7l-3.1-3.1Zm-.17,6.37L39.69,15l-3.1-3.11,3.1-3.1ZM36.43,5.49l3.1,3.11-3.1,3.1L33.32,8.6Zm-.17,6.37L33.16,15l-3.11-3.11,3.11-3.1ZM29.89,5.49,33,8.6l-3.11,3.1-3.1-3.1Zm-.16,6.37L26.62,15l-3.1-3.11,3.1-3.1ZM23.36,5.49l3.1,3.11-3.1,3.1L20.25,8.6Zm-.17,6.37L20.09,15,17,11.86l3.1-3.1ZM16.82,5.49,19.93,8.6l-3.11,3.1-3.1-3.1Zm-.16,6.37L13.56,15l-3.11-3.11,3.11-3.1ZM7.19,8.6l3.1-3.11,3.1,3.11-3.1,3.1Zm0,6.53,3.1-3.1,3.1,3.1-3.1,3.1Zm0,6.53,3.1-3.1,3.1,3.1-3.1,3.11Zm0,6.54,3.1-3.11,3.1,3.11-3.1,3.1Zm0,6.53,3.1-3.1,3.1,3.1-3.1,3.11Zm0,6.53,3.1-3.1,3.1,3.1-3.1,3.11Zm0,6.54,3.1-3.1,3.1,3.1-3.1,3.1Zm0,6.53,3.1-3.1,3.1,3.1-3.1,3.11Zm0,6.54,3.1-3.11,3.1,3.11L10.29,64Z"/></svg>