<svg id="Capa_1" data-name="Capa 1" xmlns="http://www.w3.org/2000/svg" viewBox="0 0 260.25 314.97"><defs><style>.cls-1{fill:#1d1d1b;}</style></defs><path class="cls-1" d="M243.28,215.56c-4.56.24-9,.48-13.84.72-.16-6.08,3-20.32,7.2-21.44,2.24-.56,5,3.2,6.08,11.28A85.49,85.49,0,0,1,243.28,215.56Zm1,13.76c.24,2,.48,3.92.64,6.16.16,3.2,1,4.24,3.84,4.32s5.36-.16,7.92-.32c2.64-.4,3-3.12,3.28-5.6.4-9.6.64-19.2-.56-28.8-1.36-10.56-7.44-29.44-21.92-28.4-5.36.32-10.24,3.68-13.84,8.08-9.52,11.68-10,35.52-9.84,50.8,0,2.32,1.2,4.16,3.52,4.32a36.89,36.89,0,0,0,7.28,0c2.48-.4,4.32-1.76,4.48-4.64.08-1.76.32-3.44.56-5.2C234.48,229.88,239.28,229.64,244.24,229.32Zm-61-37.2c3.28-.88,7.84,1.2,9.12,4.16,2.72,5.44-1.28,11.92-7.92,12.4a10.5,10.5,0,0,1-1.2-.24Zm10.48,26.72c7.84-1.36,12.4-7.76,13.44-15.6,1.6-13.12-5.36-22.32-18.88-25.12-1.76-.32-3.44-.48-5.12-.64a40.4,40.4,0,0,0-11.2.08,2.63,2.63,0,0,0-2.4,2.08,7.4,7.4,0,0,0-.32,1.84c-.48,16-.24,31.92.16,48.8a50.38,50.38,0,0,0,.4,6c.24,2.4,1.44,3.76,3.76,3.92a39.59,39.59,0,0,0,6.88-.24,3.06,3.06,0,0,0,3-3.2,30,30,0,0,0,.08-4.64c0-2-.24-4-.32-5.92a10.63,10.63,0,0,1,2.32,2.32c2.24,2.32,4.48,4.8,6.88,7a16,16,0,0,0,9.28,4,5.55,5.55,0,0,0,5.6-2.4,10.24,10.24,0,0,0,2-5.76c.16-2.72-.32-3.68-2.8-4.8a40,40,0,0,1-3.84-1.68,76.81,76.81,0,0,1-6.64-4A13.56,13.56,0,0,1,193.76,218.84Zm-33.6,6.72c-2.48.08-5,.32-13,.32-2.16,0-2.64-.4-2.72-2.56-.08-1.92,0-3.68,0-5.44,0-1.36.48-1.76,1.84-1.84a34.73,34.73,0,0,1,4.08.08c1.2.08,2.48.24,3.76.24,2.56,0,3.92-1.2,4-3.6.08-2.08-.16-4.32-.24-6.4a2.75,2.75,0,0,0-2.72-2.72,58,58,0,0,0-7.6-.24c-1.52,0-3.44-.32-3.44-2.08.16-7-.64-9.36,3-10.08a19.8,19.8,0,0,1,4.24-.32c2.72.08,5.44.16,8.16.4,3,.24,4.56-2,4.88-4.32a15.49,15.49,0,0,0-.56-8.08c-.64-1.92-3.28-3-5.28-3-3.2.08-6.48.4-9.84.56-1.68.08-3.36.24-5.12.24-2.72.08-5.52,0-8.32.08-5,.16-5,5.44-5,9.92.08,14.16.08,31,.64,48.32a4.45,4.45,0,0,0,4,4.48c7.92,1.2,16.64.4,26.32.16a3.1,3.1,0,0,0,3.36-3,52.44,52.44,0,0,0,.32-7.12C164.8,226.76,163.2,225.48,160.16,225.56Zm-50.64-12.08c.16,0,.24.08.4.08,0,.24.08.56.08.8.24,6.16.56,14.8.72,20.88.16,3.44,1.28,4.72,4.64,4.8a53.42,53.42,0,0,0,6.24-.32c3.2-.32,3.84-1.12,3.76-4.24-.08-6.64-.24-15.68-.24-22.32,0-9.68.16-18.56.24-28.08a19,19,0,0,0-.24-3.68,5.12,5.12,0,0,0-5-4.8,32.45,32.45,0,0,0-6.24.08c-1.76.16-3.68.8-4.56,2.72-.8,1.44-1.52,2.88-2.32,4.4-2.48,4.88-4.88,9.12-7.36,14a13.63,13.63,0,0,1-1.2,1.76c-1.28,1.76-2,1.76-3.28,0a11.45,11.45,0,0,1-.88-1.2C90.72,192,87,185.8,83.2,179.48a4.69,4.69,0,0,0-3.68-2.64,67,67,0,0,0-6.88-.32c-3,.16-4,1.2-4.08,4.4v.56c0,13.84.08,26.56.08,40.32,0,3.36-.32,9.68-.4,13,0,2.72,1.44,4.56,3.92,5a39.24,39.24,0,0,0,6.16.32c4.64-.24,5.92-1.6,5.92-6.32V215.16c0-2.88.72-2.32,1.52-.88,1.6,2.72,2.48,5.92,4.16,9a4.35,4.35,0,0,0,3.76,2.56c1.68,0,3.36-.16,5,0a5.6,5.6,0,0,0,5.84-3.6c.08-.32.4-.56.56-.88C106.56,218.68,108.08,216.12,109.52,213.48Zm-46.08,19c.08-7.84.08-18.8.08-47,0-1.76.16-3.44,0-5.12-.08-2.16-.8-3.12-2.88-3.28-2.48-.24-7.28-.24-9.84-.16-1.92,0-3,1.2-3,3.12-.08,1-.08,2.08-.08,3-.64,14-.56,30.88-.72,44.88v6c0,3.76,1.6,5.68,5.36,5.92a52.9,52.9,0,0,0,7.92-.32,3.27,3.27,0,0,0,3-3.12A32.22,32.22,0,0,0,63.44,232.44ZM24.56,204.36c.48-.48.64-.72.8-.88,5.36-5.28,11.44-10.08,15.52-16.64a3.77,3.77,0,0,0-.08-4.08,20.53,20.53,0,0,0-5.84-5.6,3.87,3.87,0,0,0-4.8.48,18.71,18.71,0,0,0-2,2.4c-3.68,4.88-7.6,10.48-12.72,14.16,0-1.6.08-2.88,0-4.24-.08-2.64,0-6.72-.32-9.44s-1.44-3.76-4.48-3.92c-1.36-.08-3.44-.08-4.88,0-4.4.08-5.12.8-5,5.2,0,14.32.48,29.92-.24,44.64-.16,2.88-.4,5.76-.48,8.64-.08,3,1.2,4.4,4.32,4.72,1.76.08,3.52,0,5.36,0,2.8-.24,3.76-.88,4.56-3.68a50.06,50.06,0,0,0,.8-5.92c.08-5.12-.16-10.32.24-15.44a17.69,17.69,0,0,0,1.36,2.16A121.83,121.83,0,0,1,24.8,234.2a23.32,23.32,0,0,0,1.76,3.44,4,4,0,0,0,3.2,2.16c3.52.32,6.64-1,9.44-3,2.32-1.68,2.56-3.44,1-5.92-1.52-2.72-3.2-5.2-4.72-7.92C31.84,216.76,28.24,210.6,24.56,204.36Z"/><path class="cls-1" d="M243.12,271.38c6.16-8.16-3.6-16.56-10.16-19.36-4.48-1.84-10.16-1.6-16,.08a15.83,15.83,0,0,0-8.72,24.16,38.53,38.53,0,0,0,10.64,9c2.56,1.44,5,3.28,7.44,5a6.85,6.85,0,0,1,2.88,5.84c-.64,5.28-8.48,3.36-10.8-1.76a29.7,29.7,0,0,0-2.08-4.24,5.39,5.39,0,0,0-6.08-2.56,9.16,9.16,0,0,0-6.24,5.12,7.19,7.19,0,0,0-.8,4.8,17.8,17.8,0,0,0,4.32,8.56,26.43,26.43,0,0,0,13.84,8.16c7,1.52,13.2-.08,18.32-5.28a16.42,16.42,0,0,0,4.56-11.2c.16-5.92-1.92-10.88-6.72-14.56-2.48-1.92-5.52-3.52-8.16-5.44-2.24-1.52-4.48-3.12-6.56-4.8-2.24-1.92-2.4-6.08.48-7.84a3.5,3.5,0,0,1,4.4.24,8.55,8.55,0,0,1,2.08,2.08,34.42,34.42,0,0,1,2.56,4.8C234.64,277.3,240.08,275.38,243.12,271.38Zm-68.8,26.48a208.25,208.25,0,0,0-.4-31.6c8.32-1.52,10.48,7.28,10.4,15.12-.16,5-.64,11.6-5,15A6.67,6.67,0,0,1,174.32,297.86ZM198,294.18c4.08-17.6-.24-37.6-20.56-42.24a33.31,33.31,0,0,0-14.32-.48c-2.8.56-3.44,1.2-3.52,4.08,0,2.56,0,5.12-.08,7.52,0,10.24.24,20.32.48,32.24.16,4.16-.16,8.32-.24,12.48A5.47,5.47,0,0,0,161.6,312a8.54,8.54,0,0,0,4.48,2.24,40.51,40.51,0,0,0,10.32.08C189.44,312.42,196.16,302.18,198,294.18Zm-68.72-27.36c3.28-.88,7.84,1.2,9.12,4.16,2.72,5.44-1.28,11.92-7.92,12.4a10.5,10.5,0,0,1-1.2-.24Zm10.48,26.72c7.84-1.36,12.4-7.76,13.44-15.6,1.6-13.12-5.36-22.32-18.88-25.12-1.76-.32-3.44-.48-5.12-.64a40.4,40.4,0,0,0-11.2.08,2.63,2.63,0,0,0-2.4,2.08,7.4,7.4,0,0,0-.32,1.84c-.48,16-.24,31.92.16,48.8a50.38,50.38,0,0,0,.4,6c.24,2.4,1.44,3.76,3.76,3.92a39.59,39.59,0,0,0,6.88-.24,3.06,3.06,0,0,0,3-3.2,30,30,0,0,0,.08-4.64c0-2-.24-4-.32-5.92a10.63,10.63,0,0,1,2.32,2.32c2.24,2.32,4.48,4.8,6.88,7a16,16,0,0,0,9.28,4,5.55,5.55,0,0,0,5.6-2.4,10.24,10.24,0,0,0,2-5.76c.16-2.72-.32-3.68-2.8-4.8a40,40,0,0,1-3.84-1.68,76.81,76.81,0,0,1-6.64-4A13.56,13.56,0,0,1,139.76,293.54ZM93,290.26c-4.56.24-9,.48-13.84.72-.16-6.08,3-20.32,7.2-21.44,2.24-.56,5,3.2,6.08,11.28A85.49,85.49,0,0,1,93,290.26ZM94,304c.24,2,.48,3.92.64,6.16.16,3.2,1,4.24,3.84,4.32s5.36-.16,7.92-.32c2.64-.4,3-3.12,3.28-5.6.4-9.6.64-19.2-.56-28.8-1.36-10.56-7.44-29.44-21.92-28.4-5.36.32-10.24,3.68-13.84,8.08-9.52,11.68-10,35.52-9.84,50.8,0,2.32,1.2,4.16,3.52,4.32a36.89,36.89,0,0,0,7.28,0c2.48-.4,4.32-1.76,4.48-4.64.08-1.76.32-3.44.56-5.2C84.24,304.58,89,304.34,94,304ZM39,314.66c10.4.64,17.84-7.2,20.24-15.68.72-2.56,1.44-6.08-2-7.28a25.42,25.42,0,0,0-4.56-1.52c-2.08-.56-3.28.16-4.32,1.92-6.56,11.68-13.76,10.16-16.48-2.48-1.76-6.24-.88-12.56,1.28-18.56a12.28,12.28,0,0,1,2.16-3.52,7.3,7.3,0,0,1,1.92-1.92A4.49,4.49,0,0,1,44,268a11.48,11.48,0,0,1,.64,2,3.75,3.75,0,0,0,2.8,2.64c2.88.72,5.36.4,7.6-1.52,2.4-2.16,2.72-4.88,1.76-7.84-2.88-8.24-13.28-14.08-22.64-11.28-8.8,2.64-15.12,12.24-16.72,20.32C14.16,289.06,15.68,313.54,39,314.66Z"/><path class="cls-1" d="M211.78,43.36c-5.22-1-10.58-2-15.94-3.07q-24-4.68-47.91-9.36c-5.33-1-9.72,2-10.77,7.32q-6.28,32-12.5,64-6.41,32.79-12.76,65.58c-.34,1.76-.05,3.63-.23,5.6a27.25,27.25,0,0,1-1.26-5.21c-.43-9.81-.69-19.63-1-29.44q-.94-28.05-1.88-56.09c-.51-15.29-1-30.57-1.46-45.87-.17-6.23,3.06-9.64,9.23-9.85Q144.13,26,173,25c9.68-.32,19.36-.62,29-1,5.6-.22,9.68,3.46,9.76,9C211.81,36.45,211.78,39.84,211.78,43.36Zm-89.31-5.83-3.66,6.53,4.07,6.35c1.18-2.11,2.5-4.44,3.69-6.56Z"/><path d="M83.64,29.93l49.07-12.35,17-4.31C148.15,10,146.68,7,145.13,4a6,6,0,0,0-1.56-1.8c-3.27-2.68-6.76-2.7-10.47-.91Q94.54,19.87,56,38.46C49.59,41.53,48,46,51.09,52.37q9.33,19.27,18.66,38.56,19,39.38,38,78.76a31.53,31.53,0,0,0,2.75,4l.29-.31a45.62,45.62,0,0,1-2-5.3q-9.14-36.18-18.18-72.38Q83.73,68.47,76.88,41.22C75.52,35.81,78.26,31.29,83.64,29.93ZM73.11,54.05a5,5,0,0,1-1.09.17,10.05,10.05,0,0,1-1.09,0c.36,1.09,1.31,1.78,3.1,2.2l-4.61,2.25a3.82,3.82,0,0,0,.24-3.9l-.25.42a3.66,3.66,0,0,1-2.19,1.74,2.76,2.76,0,0,1-3.58-3,6.1,6.1,0,0,1,.44-1.79,25,25,0,0,0,1.78-6.57s0,0,.08-.12a24.78,24.78,0,0,0,6.61,2.79,4,4,0,0,1,2.13,1.35A2.86,2.86,0,0,1,73.11,54.05Z"/><path class="cls-1" d="M150.33,56.57c-.56-1.14-1.05-2.3-1.68-3.37-.79-1.34-1.71-2.61-2.57-3.92-.4-.61-.83-1.21-1.19-1.85a4,4,0,0,1-.47-2.41c.29-2.83,3.35-3.72,5.33-2.85a6.11,6.11,0,0,1,2.53,2.11.49.49,0,0,0,.77.14,5.62,5.62,0,0,1,3.6-1A3.78,3.78,0,0,1,160,45.88a3.56,3.56,0,0,1-1,3.92,8.31,8.31,0,0,1-1.66,1.29,32.7,32.7,0,0,0-6.91,5.37A.63.63,0,0,1,150.33,56.57Z"/><path class="cls-1" d="M172.74,132.14c-1.57-3.18-2.92-6.42-4.69-9.41-2.23-3.77-4.79-7.32-7.2-11-1.13-1.72-2.32-3.4-3.32-5.2a11.14,11.14,0,0,1-1.33-6.73c.81-7.94,9.37-10.41,14.93-8a17.29,17.29,0,0,1,7.09,5.88c.67.93,1.22,1,2.14.4,3.08-1.9,6.39-3.14,10.08-2.73,4.4.48,7.74,2.68,9.35,6.83s.28,7.88-2.69,11a22.7,22.7,0,0,1-4.65,3.62,91,91,0,0,0-19.33,15.05A2.31,2.31,0,0,1,172.74,132.14Z"/><path class="cls-1" d="M93.84,48.49c-1.25,1.31-2.61,1.69-3.91,1.08a3,3,0,0,1-1.71-3.07c.17-1.43,1.14-2.32,3-2.66a3.07,3.07,0,0,1-1.32-2,2.92,2.92,0,0,1,.59-2.33,3,3,0,0,1,3.75-.79c1.41.76,1.85,2.14,1.27,4.07a3,3,0,0,1,4,1.28,2.74,2.74,0,0,1-.26,3.24,3.2,3.2,0,0,1-4,.84,3.78,3.78,0,0,0,2.66,2.69L93,52a9.43,9.43,0,0,0,.86-1.67A8.85,8.85,0,0,0,94,48.49Z"/></svg>